<?xml version="1.0" encoding="UTF-8" standalone="no"?>
<!-- Generator: Adobe Illustrator 25.2.3, SVG Export Plug-In . SVG Version: 6.00 Build 0)  -->

<svg
   xmlns:dc="http://purl.org/dc/elements/1.1/"
   xmlns:cc="http://creativecommons.org/ns#"
   xmlns:rdf="http://www.w3.org/1999/02/22-rdf-syntax-ns#"
   xmlns:svg="http://www.w3.org/2000/svg"
   xmlns="http://www.w3.org/2000/svg"
   xmlns:sodipodi="http://sodipodi.sourceforge.net/DTD/sodipodi-0.dtd"
   xmlns:inkscape="http://www.inkscape.org/namespaces/inkscape"
   version="1.1"
   x="0px"
   y="0px"
   viewBox="0 0 539.57764 147.3"
   xml:space="preserve"
   id="svg145"
   sodipodi:docname="KCCLogo.svg"
   width="539.57764"
   height="147.3"
   inkscape:version="0.92.2 (5c3e80d, 2017-08-06)"><metadata
     id="metadata151"><rdf:RDF><cc:Work
         rdf:about=""><dc:format>image/svg+xml</dc:format><dc:type
           rdf:resource="http://purl.org/dc/dcmitype/StillImage" /></cc:Work></rdf:RDF></metadata><defs
     id="defs149" /><sodipodi:namedview
     pagecolor="#ffffff"
     bordercolor="#666666"
     borderopacity="1"
     objecttolerance="10"
     gridtolerance="10"
     guidetolerance="10"
     inkscape:pageopacity="0"
     inkscape:pageshadow="2"
     inkscape:window-width="1920"
     inkscape:window-height="1017"
     id="namedview147"
     showgrid="false"
     inkscape:zoom="0.32777778"
     inkscape:cx="259.71"
     inkscape:cy="-3.78"
     inkscape:window-x="-8"
     inkscape:window-y="-8"
     inkscape:window-maximized="1"
     inkscape:current-layer="svg145" /><style
     type="text/css"
     id="style2">
	.st0{display:none;}
	.st1{display:inline;fill:none;}
	.st2{display:inline;fill:#BA8748;}
	.st3{display:inline;}
	.st4{fill:#BA8748;stroke:#BA8748;stroke-width:2;}
	.st5{fill:#00B194;}
	.st6{fill:#BA8748;}
	.st7{display:none;fill:#BA8748;}
	.st8{font-family:'MyriadPro-Regular';}
	.st9{font-size:36px;}
</style><g
     id="Layer_3"
     class="st0"
     style="display:none"
     transform="translate(-100.29,-208.92)"><rect
       x="93.690002"
       y="201.44"
       class="st1"
       width="610.71002"
       height="162.5"
       id="rect4"
       style="display:inline;fill:none" /></g><g
     id="Layer_1"
     class="st0"
     style="display:none"
     transform="translate(-100.29,-208.92)"><path
       class="st2"
       d="m 194.88,287.61 27.71,15.3 c 3.33,2.05 0.69,6.65 0.69,6.65 0,0 -5.44,6.08 -9.44,10.2 -4,4.13 -7.95,-1.44 -7.95,-1.44 l -16.83,-20.58 c -2.96,-3.48 -4.47,-3.47 -4.47,-3.47 0,0 -1.91,-0.04 -3.41,2.15 -2.74,3.98 -23.98,36.27 -23.98,36.27 0,0 -2.22,4.91 -7.41,1.34 -5.19,-3.57 -11.16,-9.09 -11.16,-9.09 0,0 -4.18,-3.96 2.85,-10.21 7.03,-6.26 33.13,-26.59 33.13,-26.59 -0.06,0.09 1.4,-1.58 0.88,-2.55 l 9.09,8.69 c -1.12,-1.1 -45.41,-43.31 -45.41,-43.31 0,0 -5.6,-4.48 -0.7,-9.36 4.9,-4.88 10.98,-9.44 10.98,-9.44 0,0 3.84,-4.37 8.58,2.33 4.75,6.7 22.53,39.53 22.53,39.53 0,0 1.26,2.2 3.07,2.2 0,0 1.27,0.76 3.59,-2.9 2.32,-3.67 15.63,-24.03 15.63,-24.03 0,0 3.05,-4.76 6.13,-0.52 3.09,4.24 9.81,12.02 9.81,12.02 0,0 3.17,2.67 -1.54,6.25 -4.71,3.58 -22.12,15.16 -22.12,15.16 0,0 -3.1,2.88 -0.25,5.4 z"
       id="path7"
       inkscape:connector-curvature="0"
       style="display:inline;fill:#ba8748" /><g
       class="st3"
       id="g11"
       style="display:inline"><path
         class="st4"
         d="m 242.62,283.07 c 0,36.8 -30.1,66.73 -67.1,66.73 -37,0 -67.1,-29.94 -67.1,-66.73 0,-36.8 30.1,-66.73 67.1,-66.73 37,0 67.1,29.93 67.1,66.73 z m -67.1,-72.65 c -40.22,0 -72.94,32.59 -72.94,72.65 0,40.06 32.72,72.65 72.94,72.65 40.22,0 72.94,-32.59 72.94,-72.65 0,-40.06 -32.72,-72.65 -72.94,-72.65 z"
         id="path9"
         inkscape:connector-curvature="0"
         style="fill:#ba8748;stroke:#ba8748;stroke-width:2" /></g></g><g
     id="Kamoto"
     class="st0"
     style="display:none"
     transform="translate(-100.29,-208.92)"><g
       class="st3"
       id="g26"
       style="display:inline"><path
         class="st5"
         d="m 272.91,281.2 c 0.13,-3.63 0.2,-7.31 0.2,-11.05 v -14.62 c 0,-3.74 -0.07,-7.41 -0.2,-11 -0.13,-3.6 -0.27,-7.27 -0.43,-11 0.74,0.13 1.45,0.25 2.14,0.35 0.68,0.1 1.37,0.15 2.05,0.15 0.68,0 1.37,-0.05 2.05,-0.15 0.68,-0.1 1.39,-0.22 2.14,-0.35 -0.19,3.74 -0.36,7.41 -0.52,11.01 -0.16,3.6 -0.23,7.27 -0.23,11.01 v 4.68 c 0,0.45 0.17,0.68 0.51,0.68 0.23,0 0.62,-0.25 1.19,-0.76 1.98,-1.7 4.06,-3.63 6.25,-5.78 2.18,-2.15 4.38,-4.39 6.59,-6.71 2.21,-2.32 4.39,-4.69 6.54,-7.1 2.15,-2.41 4.22,-4.75 6.21,-7.01 0.62,0.13 1.22,0.25 1.78,0.35 0.57,0.1 1.13,0.15 1.7,0.15 0.68,0 1.36,-0.05 2.04,-0.15 0.68,-0.1 1.36,-0.22 2.04,-0.35 -1.98,1.7 -4.22,3.71 -6.71,6.03 -2.49,2.32 -5,4.7 -7.52,7.14 -2.52,2.44 -4.93,4.83 -7.22,7.18 -2.3,2.35 -4.21,4.4 -5.74,6.16 4.59,5.16 9.22,10.41 13.9,15.76 4.67,5.35 9.42,10.72 14.24,16.1 -0.85,-0.08 -1.7,-0.13 -2.55,-0.13 -0.85,0 -1.7,0 -2.55,0 -0.79,0 -1.57,0 -2.34,0 -0.77,0 -1.54,0.04 -2.34,0.13 -2.04,-2.32 -4.29,-4.98 -6.76,-7.99 -2.46,-3 -4.87,-5.91 -7.22,-8.71 -2.35,-2.8 -4.48,-5.33 -6.38,-7.57 -1.9,-2.24 -3.3,-3.81 -4.21,-4.72 -0.45,-0.45 -0.79,-0.68 -1.02,-0.68 -0.28,0 -0.42,0.17 -0.42,0.51 v 7.39 c 0,3.74 0.08,7.42 0.23,11.05 0.16,3.63 0.33,7.2 0.52,10.71 -1.31,-0.08 -2.71,-0.13 -4.19,-0.13 -1.48,0 -2.88,0.04 -4.19,0.13 0.14,-3.52 0.28,-7.09 0.42,-10.71 z"
         id="path14"
         inkscape:connector-curvature="0"
         style="fill:#00b194" /><path
         class="st5"
         d="m 374.9,291.9 c -0.79,-0.08 -1.54,-0.13 -2.25,-0.13 -0.71,0 -1.46,0 -2.25,0 -0.79,0 -1.54,0 -2.25,0 -0.71,0 -1.46,0.04 -2.25,0.13 -0.4,-1.3 -0.94,-2.87 -1.62,-4.71 -0.68,-1.84 -1.43,-3.76 -2.25,-5.77 -0.82,-2.01 -1.66,-4.04 -2.51,-6.11 -0.85,-2.07 -1.64,-4.03 -2.38,-5.9 -1.81,-0.04 -3.65,-0.07 -5.53,-0.09 -1.87,-0.02 -3.74,-0.03 -5.61,-0.03 -1.76,0 -3.49,0.01 -5.19,0.03 -1.7,0.02 -3.43,0.05 -5.18,0.09 -1.81,4.42 -3.46,8.62 -4.93,12.61 -1.47,3.99 -2.58,7.29 -3.31,9.89 -0.96,-0.08 -2.01,-0.13 -3.14,-0.13 -1.13,0 -2.18,0.04 -3.14,0.13 4.59,-9.92 9.07,-19.78 13.43,-29.58 4.36,-9.8 8.75,-19.78 13.18,-29.92 h 1.61 c 1.36,3.29 2.83,6.84 4.42,10.67 1.59,3.82 3.2,7.69 4.85,11.6 1.64,3.91 3.29,7.79 4.93,11.65 1.64,3.85 3.19,7.44 4.63,10.75 1.45,3.32 2.75,6.28 3.91,8.88 1.14,2.6 2.09,4.58 2.83,5.94 z m -37.66,-26.37 c 1.47,0 3,0.02 4.59,0.06 1.59,0.04 3.12,0.06 4.59,0.06 1.59,0 3.17,-0.01 4.76,-0.03 1.59,-0.02 3.17,-0.05 4.76,-0.09 l -9.44,-21.59 z"
         id="path16"
         inkscape:connector-curvature="0"
         style="fill:#00b194" /><path
         class="st5"
         d="m 404.08,255.86 c 3.99,7.59 8.17,15.39 12.54,23.38 0.57,-1.08 1.39,-2.62 2.46,-4.63 1.08,-2.01 2.32,-4.32 3.74,-6.93 1.42,-2.61 2.93,-5.43 4.55,-8.46 1.62,-3.03 3.26,-6.11 4.93,-9.22 1.67,-3.12 3.33,-6.18 4.97,-9.18 1.64,-3 3.17,-5.81 4.59,-8.42 h 1.11 c 0.62,5.44 1.2,10.7 1.74,15.77 0.54,5.07 1.09,10.06 1.66,14.96 0.57,4.9 1.13,9.75 1.7,14.54 0.57,4.79 1.19,9.53 1.87,14.24 -0.68,-0.08 -1.35,-0.13 -2,-0.13 -0.65,0 -1.32,0 -2,0 -0.68,0 -1.35,0 -2,0 -0.65,0 -1.32,0.04 -2,0.13 -0.62,-7.54 -1.25,-14.85 -1.87,-21.93 -0.63,-7.08 -1.39,-14.31 -2.29,-21.68 h -0.17 c -3.91,7.15 -7.75,14.25 -11.52,21.31 -3.77,7.06 -7.35,14.45 -10.75,22.17 h -0.77 c -3.4,-7.15 -6.96,-14.31 -10.67,-21.48 -3.71,-7.18 -7.44,-14.51 -11.18,-22 h -0.17 c -0.4,3.51 -0.84,7.32 -1.32,11.43 -0.48,4.11 -0.92,8.16 -1.32,12.15 -0.4,4 -0.74,7.76 -1.02,11.3 -0.29,3.54 -0.43,6.45 -0.43,8.71 -0.91,-0.08 -1.9,-0.13 -2.97,-0.13 -1.08,0 -2.07,0.04 -2.97,0.13 0.74,-4.59 1.5,-9.43 2.29,-14.54 0.79,-5.1 1.56,-10.23 2.29,-15.38 0.74,-5.16 1.42,-10.24 2.04,-15.26 0.62,-5.02 1.16,-9.79 1.62,-14.32 h 1.45 c 3.92,8.06 7.88,15.88 11.87,23.47 z"
         id="path18"
         inkscape:connector-curvature="0"
         style="fill:#00b194" /><path
         class="st5"
         d="m 462.48,249.96 c 1.55,-3.77 3.73,-6.96 6.53,-9.56 2.8,-2.61 6.15,-4.59 10.05,-5.95 3.9,-1.36 8.17,-2.04 12.8,-2.04 4.69,0 8.99,0.68 12.89,2.04 3.9,1.36 7.25,3.35 10.05,5.95 2.8,2.61 4.97,5.79 6.53,9.56 1.55,3.77 2.33,8.06 2.33,12.88 0,4.82 -0.78,9.11 -2.33,12.88 -1.55,3.77 -3.73,6.96 -6.53,9.57 -2.8,2.61 -6.15,4.55 -10.05,5.82 -3.9,1.27 -8.2,1.91 -12.89,1.91 -4.63,0 -8.9,-0.64 -12.8,-1.91 -3.9,-1.28 -7.25,-3.22 -10.05,-5.82 -2.8,-2.61 -4.97,-5.8 -6.53,-9.57 -1.56,-3.77 -2.33,-8.06 -2.33,-12.88 0,-4.81 0.77,-9.11 2.33,-12.88 z m 51.02,0.67 c -1.18,-3.43 -2.83,-6.27 -4.95,-8.51 -2.11,-2.24 -4.59,-3.9 -7.44,-4.98 -2.85,-1.08 -5.93,-1.62 -9.26,-1.62 -3.27,0 -6.33,0.54 -9.17,1.62 -2.85,1.08 -5.33,2.74 -7.44,4.98 -2.11,2.24 -3.76,5.08 -4.95,8.51 -1.18,3.43 -1.78,7.5 -1.78,12.21 0,4.71 0.59,8.78 1.78,12.21 1.18,3.43 2.83,6.27 4.95,8.51 2.11,2.24 4.59,3.9 7.44,4.98 2.85,1.08 5.9,1.62 9.17,1.62 3.32,0 6.41,-0.54 9.26,-1.62 2.85,-1.08 5.33,-2.74 7.44,-4.98 2.11,-2.24 3.76,-5.08 4.95,-8.51 1.18,-3.43 1.78,-7.5 1.78,-12.21 -0.01,-4.71 -0.6,-8.78 -1.78,-12.21 z"
         id="path20"
         inkscape:connector-curvature="0"
         style="fill:#00b194" /><path
         class="st5"
         d="m 545.7,238.03 c -1.47,0 -3.02,0.01 -4.63,0.04 -1.62,0.03 -3.23,0.08 -4.85,0.16 -1.62,0.08 -3.17,0.17 -4.68,0.27 -1.5,0.1 -2.85,0.23 -4.04,0.39 0.28,-1.02 0.43,-1.93 0.43,-2.72 0,-0.62 -0.14,-1.5 -0.43,-2.63 3.74,0.13 7.39,0.25 10.96,0.35 3.57,0.1 7.25,0.15 11.04,0.15 3.79,0 7.47,-0.05 11.04,-0.15 3.57,-0.1 7.22,-0.22 10.97,-0.35 -0.29,1.13 -0.43,2.04 -0.43,2.72 0,0.74 0.14,1.62 0.43,2.63 -1.19,-0.15 -2.54,-0.28 -4.04,-0.39 -1.5,-0.1 -3.06,-0.19 -4.67,-0.27 -1.62,-0.08 -3.23,-0.13 -4.85,-0.16 -1.62,-0.03 -3.16,-0.04 -4.63,-0.04 -0.17,5.83 -0.25,11.68 -0.25,17.56 v 14.59 c 0,3.73 0.07,7.41 0.2,11.03 0.13,3.62 0.28,7.18 0.43,10.69 -1.31,-0.08 -2.71,-0.13 -4.19,-0.13 -1.48,0 -2.88,0.04 -4.19,0.13 0.19,-3.51 0.36,-7.07 0.52,-10.69 0.16,-3.62 0.23,-7.29 0.23,-11.03 v -14.59 c 0.01,-5.88 -0.12,-11.74 -0.37,-17.56 z"
         id="path22"
         inkscape:connector-curvature="0"
         style="fill:#00b194" /><path
         class="st5"
         d="m 577.66,249.96 c 1.55,-3.77 3.73,-6.96 6.53,-9.56 2.8,-2.61 6.15,-4.59 10.05,-5.95 3.9,-1.36 8.17,-2.04 12.8,-2.04 4.69,0 8.99,0.68 12.89,2.04 3.9,1.36 7.25,3.35 10.05,5.95 2.8,2.61 4.97,5.79 6.53,9.56 1.55,3.77 2.33,8.06 2.33,12.88 0,4.82 -0.78,9.11 -2.33,12.88 -1.55,3.77 -3.73,6.96 -6.53,9.57 -2.8,2.61 -6.15,4.55 -10.05,5.82 -3.9,1.27 -8.2,1.91 -12.89,1.91 -4.63,0 -8.9,-0.64 -12.8,-1.91 -3.9,-1.28 -7.25,-3.22 -10.05,-5.82 -2.8,-2.61 -4.97,-5.8 -6.53,-9.57 -1.55,-3.77 -2.33,-8.06 -2.33,-12.88 0,-4.81 0.77,-9.11 2.33,-12.88 z m 51.01,0.67 c -1.18,-3.43 -2.83,-6.27 -4.95,-8.51 -2.11,-2.24 -4.59,-3.9 -7.44,-4.98 -2.85,-1.08 -5.93,-1.62 -9.26,-1.62 -3.27,0 -6.33,0.54 -9.17,1.62 -2.85,1.08 -5.33,2.74 -7.44,4.98 -2.11,2.24 -3.76,5.08 -4.95,8.51 -1.18,3.43 -1.78,7.5 -1.78,12.21 0,4.71 0.59,8.78 1.78,12.21 1.18,3.43 2.83,6.27 4.95,8.51 2.11,2.24 4.59,3.9 7.44,4.98 2.85,1.08 5.9,1.62 9.17,1.62 3.32,0 6.41,-0.54 9.26,-1.62 2.85,-1.08 5.33,-2.74 7.44,-4.98 2.11,-2.24 3.76,-5.08 4.95,-8.51 1.18,-3.43 1.78,-7.5 1.78,-12.21 0,-4.71 -0.59,-8.78 -1.78,-12.21 z"
         id="path24"
         inkscape:connector-curvature="0"
         style="fill:#00b194" /></g><g
       class="st3"
       id="g54"
       style="display:inline"><path
         class="st6"
         d="m 288.63,334.11 c -0.43,0.21 -0.96,0.4 -1.57,0.57 -0.61,0.17 -1.3,0.32 -2.05,0.45 -0.76,0.13 -1.55,0.2 -2.37,0.2 -1.76,0 -3.38,-0.25 -4.87,-0.75 -1.49,-0.5 -2.77,-1.26 -3.85,-2.29 -1.08,-1.02 -1.92,-2.28 -2.53,-3.76 -0.61,-1.48 -0.91,-3.17 -0.91,-5.06 0,-1.89 0.3,-3.58 0.91,-5.06 0.61,-1.48 1.46,-2.73 2.56,-3.76 1.1,-1.02 2.42,-1.8 3.95,-2.34 1.54,-0.53 3.23,-0.8 5.07,-0.8 1.47,0 2.81,0.15 4.02,0.46 1.21,0.3 2.29,0.67 3.22,1.09 -0.18,0.31 -0.32,0.74 -0.43,1.27 -0.11,0.53 -0.2,0.98 -0.27,1.34 l -0.2,0.07 c -0.22,-0.27 -0.53,-0.57 -0.93,-0.9 -0.4,-0.33 -0.87,-0.66 -1.4,-0.97 -0.53,-0.31 -1.13,-0.57 -1.8,-0.78 -0.67,-0.21 -1.4,-0.32 -2.2,-0.32 -1.31,0 -2.53,0.21 -3.65,0.63 -1.12,0.42 -2.1,1.07 -2.94,1.95 -0.83,0.88 -1.49,1.99 -1.95,3.34 -0.46,1.35 -0.7,2.94 -0.7,4.79 0,1.85 0.23,3.45 0.7,4.79 0.47,1.34 1.12,2.46 1.95,3.34 0.83,0.88 1.81,1.53 2.94,1.95 1.12,0.42 2.34,0.63 3.65,0.63 0.8,0 1.54,-0.1 2.22,-0.3 0.68,-0.2 1.3,-0.44 1.87,-0.72 0.57,-0.28 1.08,-0.58 1.54,-0.9 0.46,-0.32 0.84,-0.61 1.15,-0.86 l 0.13,0.13 -0.3,1.97 c -0.2,0.19 -0.52,0.39 -0.96,0.6 z"
         id="path28"
         inkscape:connector-curvature="0"
         style="fill:#ba8748" /><path
         class="st6"
         d="m 294.89,318.41 c 0.61,-1.48 1.47,-2.73 2.58,-3.76 1.1,-1.02 2.43,-1.8 3.96,-2.34 1.54,-0.53 3.22,-0.8 5.05,-0.8 1.85,0 3.55,0.27 5.09,0.8 1.54,0.54 2.86,1.31 3.96,2.34 1.1,1.02 1.96,2.28 2.58,3.76 0.61,1.48 0.92,3.17 0.92,5.06 0,1.89 -0.31,3.58 -0.92,5.06 -0.61,1.48 -1.47,2.73 -2.58,3.76 -1.1,1.02 -2.43,1.79 -3.96,2.29 -1.54,0.5 -3.23,0.75 -5.09,0.75 -1.83,0 -3.51,-0.25 -5.05,-0.75 -1.54,-0.5 -2.86,-1.26 -3.96,-2.29 -1.1,-1.02 -1.96,-2.28 -2.58,-3.76 -0.61,-1.48 -0.92,-3.17 -0.92,-5.06 0,-1.89 0.3,-3.58 0.92,-5.06 z m 20.19,0.28 c -0.47,-1.35 -1.13,-2.46 -1.96,-3.34 -0.84,-0.88 -1.82,-1.53 -2.95,-1.95 -1.13,-0.42 -2.35,-0.63 -3.67,-0.63 -1.3,0 -2.51,0.21 -3.64,0.63 -1.13,0.42 -2.11,1.07 -2.95,1.95 -0.84,0.88 -1.49,1.99 -1.96,3.34 -0.47,1.35 -0.71,2.94 -0.71,4.79 0,1.85 0.23,3.45 0.71,4.79 0.47,1.35 1.12,2.46 1.96,3.34 0.84,0.88 1.82,1.53 2.95,1.95 1.13,0.42 2.34,0.63 3.64,0.63 1.32,0 2.55,-0.21 3.67,-0.63 1.13,-0.42 2.11,-1.07 2.95,-1.95 0.84,-0.88 1.49,-1.99 1.96,-3.34 0.47,-1.35 0.71,-2.94 0.71,-4.79 -0.01,-1.84 -0.25,-3.44 -0.71,-4.79 z"
         id="path30"
         inkscape:connector-curvature="0"
         style="fill:#ba8748" /><path
         class="st6"
         d="m 324.81,316.28 c -0.04,-1.41 -0.08,-2.86 -0.13,-4.32 0.53,0.05 1.07,0.09 1.62,0.13 0.55,0.04 1.08,0.06 1.62,0.06 0.27,0 0.59,-0.01 0.97,-0.04 0.38,-0.03 0.76,-0.04 1.15,-0.06 0.39,-0.01 0.76,-0.03 1.12,-0.06 0.36,-0.03 0.66,-0.04 0.9,-0.04 0.33,0 0.75,0.01 1.24,0.03 0.49,0.02 1.01,0.09 1.55,0.2 0.54,0.11 1.08,0.28 1.62,0.5 0.53,0.22 1.02,0.55 1.45,0.97 0.43,0.42 0.78,0.95 1.05,1.59 0.27,0.64 0.4,1.42 0.4,2.36 0,1.47 -0.32,2.67 -0.96,3.58 -0.64,0.92 -1.42,1.63 -2.35,2.14 -0.93,0.51 -1.91,0.86 -2.96,1.04 -1.04,0.18 -1.96,0.27 -2.77,0.27 -0.52,0 -0.99,-0.01 -1.41,-0.02 -0.43,-0.01 -0.86,-0.05 -1.31,-0.1 v 1.83 c 0,1.47 0.03,2.91 0.1,4.34 0.06,1.42 0.14,2.82 0.21,4.2 -0.51,-0.04 -1.05,-0.06 -1.63,-0.06 -0.58,0 -1.12,0.02 -1.63,0.06 0.05,-1.38 0.09,-2.78 0.13,-4.21 0.04,-1.42 0.06,-2.87 0.06,-4.34 v -5.74 c 0.02,-1.46 0,-2.9 -0.04,-4.31 z m 5.2,7.11 c 0.7,0 1.41,-0.08 2.16,-0.23 0.74,-0.16 1.42,-0.44 2.04,-0.85 0.62,-0.41 1.12,-0.98 1.51,-1.7 0.39,-0.72 0.59,-1.65 0.59,-2.79 0,-0.96 -0.13,-1.74 -0.4,-2.34 -0.27,-0.6 -0.65,-1.07 -1.13,-1.4 -0.48,-0.33 -1.07,-0.56 -1.77,-0.68 -0.7,-0.12 -1.48,-0.18 -2.36,-0.18 h -3.03 v 9.92 c 0.76,0.16 1.56,0.25 2.39,0.25 z"
         id="path32"
         inkscape:connector-curvature="0"
         style="fill:#ba8748" /><path
         class="st6"
         d="m 344.65,316.28 c -0.04,-1.41 -0.08,-2.86 -0.13,-4.32 0.53,0.05 1.07,0.09 1.62,0.13 0.54,0.04 1.08,0.06 1.62,0.06 0.27,0 0.59,-0.01 0.97,-0.04 0.38,-0.03 0.76,-0.04 1.15,-0.06 0.39,-0.01 0.76,-0.03 1.12,-0.06 0.36,-0.03 0.66,-0.04 0.9,-0.04 0.33,0 0.75,0.01 1.24,0.03 0.49,0.02 1.01,0.09 1.55,0.2 0.54,0.11 1.08,0.28 1.62,0.5 0.53,0.22 1.02,0.55 1.45,0.97 0.43,0.42 0.78,0.95 1.05,1.59 0.27,0.64 0.4,1.42 0.4,2.36 0,1.47 -0.32,2.67 -0.96,3.58 -0.64,0.92 -1.42,1.63 -2.35,2.14 -0.93,0.51 -1.91,0.86 -2.96,1.04 -1.04,0.18 -1.96,0.27 -2.77,0.27 -0.52,0 -0.99,-0.01 -1.41,-0.02 -0.43,-0.01 -0.86,-0.05 -1.31,-0.1 v 1.83 c 0,1.47 0.03,2.91 0.1,4.34 0.06,1.42 0.14,2.82 0.21,4.2 -0.51,-0.04 -1.05,-0.06 -1.63,-0.06 -0.58,0 -1.12,0.02 -1.63,0.06 0.05,-1.38 0.09,-2.78 0.13,-4.21 0.04,-1.42 0.06,-2.87 0.06,-4.34 v -5.74 c 0.02,-1.46 0,-2.9 -0.04,-4.31 z m 5.2,7.11 c 0.7,0 1.41,-0.08 2.16,-0.23 0.74,-0.16 1.42,-0.44 2.04,-0.85 0.62,-0.41 1.12,-0.98 1.51,-1.7 0.39,-0.72 0.59,-1.65 0.59,-2.79 0,-0.96 -0.13,-1.74 -0.4,-2.34 -0.27,-0.6 -0.65,-1.07 -1.13,-1.4 -0.48,-0.33 -1.07,-0.56 -1.77,-0.68 -0.7,-0.12 -1.48,-0.18 -2.36,-0.18 h -3.03 v 9.92 c 0.76,0.16 1.56,0.25 2.39,0.25 z"
         id="path34"
         inkscape:connector-curvature="0"
         style="fill:#ba8748" /><path
         class="st6"
         d="m 364.49,316.23 c -0.04,-1.42 -0.08,-2.85 -0.13,-4.27 0.98,0.05 1.95,0.09 2.93,0.13 0.98,0.04 1.97,0.06 2.97,0.06 1,0 1.99,-0.02 2.97,-0.06 0.98,-0.04 1.97,-0.08 2.97,-0.13 -0.07,0.33 -0.1,0.67 -0.1,1 0,0.33 0.03,0.67 0.1,1 -0.71,-0.04 -1.36,-0.09 -1.95,-0.13 -0.59,-0.04 -1.21,-0.09 -1.87,-0.13 -0.66,-0.04 -1.37,-0.08 -2.15,-0.12 -0.78,-0.03 -1.71,-0.05 -2.8,-0.05 -0.02,0.71 -0.05,1.39 -0.08,2.04 -0.03,0.65 -0.05,1.38 -0.05,2.21 0,0.87 0.01,1.71 0.03,2.54 0.02,0.82 0.03,1.45 0.03,1.87 0.98,0 1.86,-0.01 2.64,-0.03 0.78,-0.02 1.49,-0.05 2.14,-0.08 0.64,-0.03 1.24,-0.07 1.79,-0.1 0.54,-0.03 1.06,-0.07 1.55,-0.12 -0.07,0.33 -0.1,0.68 -0.1,1.04 0,0.33 0.03,0.67 0.1,1 -0.58,-0.07 -1.25,-0.12 -2.02,-0.17 -0.77,-0.04 -1.54,-0.07 -2.3,-0.08 -0.77,-0.01 -1.49,-0.02 -2.17,-0.03 -0.68,-0.01 -1.22,-0.02 -1.62,-0.02 0,0.2 -0.01,0.42 -0.03,0.65 -0.02,0.23 -0.03,0.53 -0.03,0.89 v 1.31 2.01 c 0,1.27 0,2.32 0.02,3.15 0.01,0.83 0.03,1.45 0.05,1.88 0.73,0 1.51,0 2.34,0 0.85,0 1.67,-0.02 2.49,-0.05 0.81,-0.04 1.58,-0.08 2.3,-0.14 0.72,-0.06 1.35,-0.15 1.89,-0.27 -0.04,0.16 -0.07,0.33 -0.08,0.52 -0.01,0.19 -0.02,0.36 -0.02,0.52 0,0.36 0.03,0.65 0.1,0.87 -1,-0.04 -2,-0.06 -2.99,-0.06 -0.99,0 -2,0 -3.02,0 -1.02,0 -2.03,0 -3.02,0 -0.99,0 -1.98,0.02 -2.98,0.06 0.05,-1.42 0.09,-2.84 0.13,-4.26 0.04,-1.41 0.06,-2.85 0.06,-4.32 v -5.74 c -0.03,-1.52 -0.05,-2.97 -0.09,-4.39 z"
         id="path36"
         inkscape:connector-curvature="0"
         style="fill:#ba8748" /><path
         class="st6"
         d="m 382.5,316.28 c -0.05,-1.41 -0.11,-2.86 -0.17,-4.32 0.65,0.05 1.28,0.09 1.9,0.13 0.62,0.04 1.26,0.06 1.9,0.06 0.65,0 1.28,-0.03 1.9,-0.09 0.62,-0.06 1.26,-0.09 1.9,-0.09 0.93,0 1.83,0.09 2.67,0.27 0.85,0.18 1.59,0.47 2.22,0.88 0.63,0.41 1.14,0.95 1.5,1.62 0.37,0.67 0.55,1.5 0.55,2.5 0,1.07 -0.24,1.99 -0.72,2.75 -0.48,0.77 -1.06,1.4 -1.75,1.9 -0.69,0.5 -1.43,0.89 -2.22,1.17 -0.79,0.28 -1.51,0.46 -2.15,0.55 0.27,0.33 0.63,0.8 1.1,1.4 0.47,0.6 0.99,1.26 1.57,1.99 0.58,0.72 1.18,1.48 1.8,2.27 0.62,0.79 1.22,1.55 1.8,2.27 0.58,0.72 1.12,1.39 1.64,1.99 0.51,0.6 0.92,1.06 1.24,1.37 -0.33,-0.04 -0.67,-0.06 -1,-0.06 -0.33,0 -0.67,0 -1,0 -0.31,0 -0.63,0 -0.97,0 -0.33,0 -0.66,0.02 -0.97,0.06 -0.33,-0.47 -0.84,-1.17 -1.52,-2.1 -0.68,-0.93 -1.43,-1.94 -2.25,-3 -0.82,-1.07 -1.66,-2.13 -2.52,-3.19 -0.86,-1.06 -1.64,-1.95 -2.35,-2.69 h -1.27 v 2.44 c 0,1.47 0.02,2.92 0.08,4.34 0.05,1.42 0.11,2.83 0.17,4.2 -0.51,-0.04 -1.05,-0.06 -1.63,-0.06 -0.58,0 -1.12,0.02 -1.63,0.06 0.06,-1.38 0.12,-2.78 0.17,-4.21 0.05,-1.42 0.08,-2.87 0.08,-4.34 v -5.74 c 0.01,-1.48 -0.01,-2.92 -0.07,-4.33 z m 3.84,6.37 c 0.37,0.02 0.78,0.03 1.22,0.03 0.69,0 1.41,-0.08 2.16,-0.23 0.75,-0.16 1.43,-0.43 2.06,-0.82 0.63,-0.39 1.14,-0.91 1.56,-1.57 0.41,-0.66 0.62,-1.48 0.62,-2.49 0,-0.87 -0.16,-1.58 -0.49,-2.15 -0.32,-0.57 -0.74,-1.02 -1.26,-1.35 -0.51,-0.33 -1.07,-0.56 -1.67,-0.68 -0.6,-0.12 -1.19,-0.18 -1.77,-0.18 -0.78,0 -1.43,0.02 -1.94,0.05 -0.51,0.03 -0.95,0.07 -1.31,0.12 -0.04,1.22 -0.09,2.44 -0.13,3.64 -0.05,1.2 -0.07,2.4 -0.07,3.6 v 1.9 c 0.31,0.06 0.65,0.11 1.02,0.13 z"
         id="path38"
         inkscape:connector-curvature="0"
         style="fill:#ba8748" /><path
         class="st6"
         d="m 431.15,334.11 c -0.43,0.21 -0.96,0.4 -1.57,0.57 -0.61,0.17 -1.3,0.32 -2.05,0.45 -0.76,0.13 -1.55,0.2 -2.37,0.2 -1.76,0 -3.38,-0.25 -4.87,-0.75 -1.49,-0.5 -2.77,-1.26 -3.85,-2.29 -1.08,-1.02 -1.92,-2.28 -2.53,-3.76 -0.61,-1.48 -0.91,-3.17 -0.91,-5.06 0,-1.89 0.3,-3.58 0.91,-5.06 0.61,-1.48 1.46,-2.73 2.56,-3.76 1.1,-1.02 2.42,-1.8 3.95,-2.34 1.54,-0.53 3.23,-0.8 5.07,-0.8 1.47,0 2.81,0.15 4.02,0.46 1.21,0.3 2.29,0.67 3.22,1.09 -0.18,0.31 -0.32,0.74 -0.43,1.27 -0.11,0.53 -0.2,0.98 -0.27,1.34 l -0.2,0.07 c -0.22,-0.27 -0.53,-0.57 -0.93,-0.9 -0.4,-0.33 -0.87,-0.66 -1.4,-0.97 -0.53,-0.31 -1.13,-0.57 -1.8,-0.78 -0.67,-0.21 -1.4,-0.32 -2.2,-0.32 -1.31,0 -2.53,0.21 -3.65,0.63 -1.12,0.42 -2.1,1.07 -2.94,1.95 -0.83,0.88 -1.49,1.99 -1.95,3.34 -0.46,1.35 -0.7,2.94 -0.7,4.79 0,1.85 0.23,3.45 0.7,4.79 0.47,1.34 1.12,2.46 1.95,3.34 0.83,0.88 1.81,1.53 2.94,1.95 1.12,0.42 2.34,0.63 3.65,0.63 0.8,0 1.54,-0.1 2.22,-0.3 0.68,-0.2 1.3,-0.44 1.87,-0.72 0.57,-0.28 1.08,-0.58 1.54,-0.9 0.46,-0.32 0.84,-0.61 1.15,-0.86 l 0.13,0.13 -0.3,1.97 c -0.21,0.19 -0.53,0.39 -0.96,0.6 z"
         id="path40"
         inkscape:connector-curvature="0"
         style="fill:#ba8748" /><path
         class="st6"
         d="m 437.4,318.41 c 0.61,-1.48 1.47,-2.73 2.58,-3.76 1.1,-1.02 2.43,-1.8 3.96,-2.34 1.54,-0.53 3.22,-0.8 5.05,-0.8 1.85,0 3.55,0.27 5.09,0.8 1.54,0.54 2.86,1.31 3.96,2.34 1.1,1.02 1.96,2.28 2.58,3.76 0.61,1.48 0.92,3.17 0.92,5.06 0,1.89 -0.31,3.58 -0.92,5.06 -0.61,1.48 -1.47,2.73 -2.58,3.76 -1.1,1.02 -2.43,1.79 -3.96,2.29 -1.54,0.5 -3.23,0.75 -5.09,0.75 -1.83,0 -3.51,-0.25 -5.05,-0.75 -1.54,-0.5 -2.86,-1.26 -3.96,-2.29 -1.1,-1.02 -1.96,-2.28 -2.58,-3.76 -0.61,-1.48 -0.92,-3.17 -0.92,-5.06 0,-1.89 0.31,-3.58 0.92,-5.06 z m 20.19,0.28 c -0.47,-1.35 -1.13,-2.46 -1.96,-3.34 -0.84,-0.88 -1.82,-1.53 -2.95,-1.95 -1.13,-0.42 -2.35,-0.63 -3.67,-0.63 -1.3,0 -2.51,0.21 -3.64,0.63 -1.13,0.42 -2.11,1.07 -2.95,1.95 -0.84,0.88 -1.49,1.99 -1.96,3.34 -0.47,1.35 -0.71,2.94 -0.71,4.79 0,1.85 0.23,3.45 0.71,4.79 0.47,1.35 1.12,2.46 1.96,3.34 0.84,0.88 1.82,1.53 2.95,1.95 1.13,0.42 2.34,0.63 3.64,0.63 1.32,0 2.55,-0.21 3.67,-0.63 1.13,-0.42 2.11,-1.07 2.95,-1.95 0.84,-0.88 1.49,-1.99 1.96,-3.34 0.47,-1.35 0.71,-2.94 0.71,-4.79 0,-1.84 -0.24,-3.44 -0.71,-4.79 z"
         id="path42"
         inkscape:connector-curvature="0"
         style="fill:#ba8748" /><path
         class="st6"
         d="m 474.29,320.73 c 1.57,2.98 3.21,6.04 4.92,9.18 0.22,-0.42 0.54,-1.03 0.97,-1.82 0.42,-0.79 0.91,-1.7 1.47,-2.72 0.56,-1.02 1.15,-2.13 1.79,-3.32 0.63,-1.19 1.28,-2.4 1.94,-3.62 0.66,-1.22 1.31,-2.43 1.95,-3.61 0.64,-1.18 1.25,-2.28 1.8,-3.31 h 0.43 c 0.24,2.14 0.47,4.2 0.68,6.19 0.21,1.99 0.43,3.95 0.65,5.88 0.22,1.93 0.45,3.83 0.67,5.71 0.22,1.88 0.47,3.75 0.73,5.59 -0.27,-0.04 -0.53,-0.06 -0.78,-0.06 -0.25,0 -0.52,0 -0.78,0 -0.27,0 -0.53,0 -0.78,0 -0.26,0 -0.52,0.02 -0.79,0.06 -0.24,-2.96 -0.49,-5.83 -0.73,-8.62 -0.25,-2.78 -0.55,-5.62 -0.9,-8.52 h -0.07 c -1.54,2.81 -3.04,5.6 -4.52,8.37 -1.48,2.77 -2.89,5.67 -4.22,8.7 h -0.3 c -1.34,-2.81 -2.73,-5.62 -4.19,-8.43 -1.46,-2.82 -2.92,-5.7 -4.39,-8.63 h -0.07 c -0.16,1.38 -0.33,2.88 -0.52,4.49 -0.19,1.61 -0.36,3.21 -0.52,4.78 -0.16,1.57 -0.29,3.05 -0.4,4.44 -0.11,1.39 -0.17,2.53 -0.17,3.42 -0.36,-0.04 -0.75,-0.06 -1.17,-0.06 -0.42,0 -0.81,0.02 -1.17,0.06 0.29,-1.8 0.59,-3.71 0.9,-5.71 0.31,-2 0.61,-4.02 0.9,-6.04 0.29,-2.03 0.56,-4.02 0.8,-5.99 0.24,-1.97 0.46,-3.85 0.63,-5.63 h 0.57 c 1.55,3.17 3.1,6.24 4.67,9.22 z"
         id="path44"
         inkscape:connector-curvature="0"
         style="fill:#ba8748" /><path
         class="st6"
         d="m 498.29,316.28 c -0.04,-1.41 -0.08,-2.86 -0.13,-4.32 0.53,0.05 1.07,0.09 1.62,0.13 0.54,0.04 1.08,0.06 1.62,0.06 0.27,0 0.59,-0.01 0.97,-0.04 0.38,-0.03 0.76,-0.04 1.15,-0.06 0.39,-0.01 0.76,-0.03 1.12,-0.06 0.36,-0.03 0.66,-0.04 0.9,-0.04 0.33,0 0.75,0.01 1.24,0.03 0.49,0.02 1.01,0.09 1.55,0.2 0.54,0.11 1.08,0.28 1.62,0.5 0.53,0.22 1.02,0.55 1.45,0.97 0.43,0.42 0.78,0.95 1.05,1.59 0.27,0.64 0.4,1.42 0.4,2.36 0,1.47 -0.32,2.67 -0.96,3.58 -0.64,0.92 -1.42,1.63 -2.35,2.14 -0.93,0.51 -1.91,0.86 -2.96,1.04 -1.04,0.18 -1.96,0.27 -2.77,0.27 -0.52,0 -0.99,-0.01 -1.41,-0.02 -0.43,-0.01 -0.86,-0.05 -1.31,-0.1 v 1.83 c 0,1.47 0.03,2.91 0.1,4.34 0.06,1.42 0.14,2.82 0.21,4.2 -0.51,-0.04 -1.05,-0.06 -1.63,-0.06 -0.58,0 -1.12,0.02 -1.63,0.06 0.05,-1.38 0.09,-2.78 0.13,-4.21 0.04,-1.42 0.06,-2.87 0.06,-4.34 v -5.74 c 0.02,-1.46 0,-2.9 -0.04,-4.31 z m 5.2,7.11 c 0.7,0 1.41,-0.08 2.16,-0.23 0.74,-0.16 1.42,-0.44 2.04,-0.85 0.62,-0.41 1.12,-0.98 1.51,-1.7 0.39,-0.72 0.59,-1.65 0.59,-2.79 0,-0.96 -0.13,-1.74 -0.4,-2.34 -0.27,-0.6 -0.65,-1.07 -1.13,-1.4 -0.48,-0.33 -1.07,-0.56 -1.77,-0.68 -0.7,-0.12 -1.48,-0.18 -2.36,-0.18 h -3.03 v 9.92 c 0.76,0.16 1.56,0.25 2.39,0.25 z"
         id="path46"
         inkscape:connector-curvature="0"
         style="fill:#ba8748" /><path
         class="st6"
         d="m 534.85,334.89 c -0.31,-0.04 -0.61,-0.06 -0.88,-0.06 -0.28,0 -0.57,0 -0.88,0 -0.31,0 -0.61,0 -0.88,0 -0.27,0 -0.57,0.02 -0.88,0.06 -0.16,-0.51 -0.37,-1.13 -0.63,-1.85 -0.27,-0.72 -0.56,-1.47 -0.88,-2.26 -0.32,-0.79 -0.65,-1.58 -0.98,-2.39 -0.33,-0.81 -0.64,-1.58 -0.93,-2.31 -0.71,-0.02 -1.44,-0.04 -2.17,-0.05 -0.73,-0.01 -1.47,-0.02 -2.2,-0.02 -0.69,0 -1.37,0.01 -2.04,0.02 -0.67,0.01 -1.35,0.03 -2.04,0.05 -0.71,1.73 -1.36,3.38 -1.94,4.94 -0.58,1.56 -1.01,2.85 -1.3,3.87 -0.38,-0.04 -0.79,-0.06 -1.23,-0.06 -0.45,0 -0.86,0.02 -1.24,0.06 1.8,-3.9 3.56,-7.77 5.27,-11.62 1.71,-3.85 3.44,-7.77 5.17,-11.75 h 0.63 c 0.53,1.29 1.11,2.69 1.74,4.19 0.62,1.5 1.26,3.02 1.9,4.56 0.64,1.54 1.29,3.06 1.94,4.58 0.64,1.51 1.25,2.92 1.82,4.22 0.57,1.3 1.08,2.47 1.54,3.49 0.43,1.02 0.8,1.8 1.09,2.33 z m -14.78,-10.37 c 0.58,0 1.18,0.01 1.8,0.03 0.62,0.02 1.22,0.03 1.8,0.03 0.62,0 1.25,0 1.87,-0.02 0.62,-0.01 1.25,-0.03 1.87,-0.05 l -3.7,-8.48 z"
         id="path48"
         inkscape:connector-curvature="0"
         style="fill:#ba8748" /><path
         class="st6"
         d="m 550.59,326.23 c -2.89,-3.11 -5.78,-6.2 -8.67,-9.27 -0.03,0.62 -0.06,1.46 -0.08,2.5 -0.03,1.05 -0.04,2.47 -0.04,4.27 0,0.47 0,1.05 0.02,1.74 0.01,0.69 0.02,1.41 0.03,2.17 0.01,0.76 0.03,1.53 0.05,2.3 0.02,0.78 0.04,1.5 0.07,2.17 0.02,0.67 0.04,1.25 0.07,1.75 0.02,0.5 0.04,0.84 0.07,1.02 -0.35,-0.04 -0.74,-0.07 -1.15,-0.07 -0.44,0 -0.85,0.02 -1.22,0.07 0.04,-0.22 0.09,-0.63 0.15,-1.24 0.06,-0.6 0.11,-1.32 0.15,-2.15 0.04,-0.83 0.09,-1.74 0.15,-2.72 0.06,-0.98 0.1,-1.96 0.13,-2.94 0.03,-0.98 0.06,-1.94 0.08,-2.87 0.02,-0.93 0.03,-1.77 0.03,-2.5 0,-2.14 -0.01,-3.97 -0.02,-5.51 -0.01,-1.54 -0.05,-2.68 -0.1,-3.44 h 0.53 c 1.36,1.47 2.81,3.05 4.36,4.73 1.55,1.68 3.08,3.34 4.61,4.98 1.53,1.64 2.97,3.18 4.34,4.64 1.37,1.46 2.57,2.7 3.59,3.72 v -4.54 c 0,-2.34 -0.02,-4.61 -0.05,-6.83 -0.03,-2.21 -0.1,-4.3 -0.2,-6.26 0.44,0.11 0.82,0.17 1.13,0.17 0.26,0 0.62,-0.06 1.06,-0.17 -0.05,0.49 -0.1,1.22 -0.16,2.2 -0.06,0.98 -0.12,2.03 -0.18,3.14 -0.06,1.11 -0.11,2.2 -0.16,3.27 -0.05,1.07 -0.07,1.93 -0.07,2.57 0,0.56 0,1.22 0,2 0,0.76 0.01,1.55 0.02,2.37 0.01,0.82 0.03,1.65 0.04,2.49 0.01,0.83 0.03,1.61 0.04,2.34 0.01,0.72 0.02,1.35 0.02,1.89 0,0.49 0,0.86 0,1.1 h -0.47 c -2.56,-2.95 -5.28,-5.99 -8.17,-9.09 z"
         id="path50"
         inkscape:connector-curvature="0"
         style="fill:#ba8748" /><path
         class="st6"
         d="m 571.78,323.86 c -0.43,-0.72 -0.91,-1.53 -1.44,-2.4 -0.52,-0.88 -1.07,-1.8 -1.65,-2.77 -0.58,-0.97 -1.13,-1.89 -1.65,-2.77 -0.52,-0.88 -1,-1.67 -1.42,-2.37 -0.42,-0.7 -0.74,-1.23 -0.97,-1.59 0.31,0.05 0.62,0.09 0.92,0.13 0.3,0.04 0.61,0.06 0.92,0.06 0.31,0 0.62,-0.02 0.92,-0.06 0.3,-0.04 0.61,-0.08 0.92,-0.13 1,1.94 2.02,3.84 3.05,5.71 1.04,1.87 2.13,3.82 3.3,5.84 0.51,-0.8 1.05,-1.68 1.61,-2.64 0.56,-0.96 1.11,-1.94 1.67,-2.94 0.55,-1 1.09,-2.01 1.6,-3.02 0.51,-1.01 0.99,-2 1.44,-2.96 0.55,0.13 0.99,0.19 1.3,0.19 0.31,0 0.75,-0.06 1.3,-0.19 -1.07,1.63 -2.03,3.09 -2.87,4.41 -0.85,1.31 -1.59,2.5 -2.24,3.57 -0.64,1.07 -1.21,2.03 -1.7,2.89 -0.49,0.86 -0.91,1.63 -1.27,2.32 0,0.82 0.01,1.7 0.02,2.64 0.01,0.94 0.03,1.85 0.05,2.75 0.02,0.9 0.05,1.74 0.08,2.5 0.03,0.77 0.07,1.39 0.12,1.85 -0.51,-0.04 -1.06,-0.06 -1.64,-0.06 -0.58,0 -1.13,0.02 -1.64,0.06 0.13,-1.16 0.21,-2.56 0.23,-4.21 0.02,-1.65 0.03,-3.37 0.03,-5.17 -0.23,-0.37 -0.56,-0.92 -0.99,-1.64 z"
         id="path52"
         inkscape:connector-curvature="0"
         style="fill:#ba8748" /></g><g
       id="g64"><path
         class="st2"
         d="m 597.26,331.9 c 0.3,0.41 0.67,0.78 1.1,1.12 0.43,0.33 0.94,0.6 1.52,0.82 0.58,0.21 1.22,0.32 1.93,0.32 0.73,0 1.39,-0.13 1.98,-0.38 0.59,-0.26 1.09,-0.6 1.5,-1.03 0.41,-0.43 0.73,-0.95 0.95,-1.54 0.22,-0.59 0.33,-1.22 0.33,-1.89 0,-1.02 -0.26,-1.83 -0.78,-2.44 -0.52,-0.6 -1.17,-1.1 -1.95,-1.5 -0.78,-0.4 -1.62,-0.77 -2.52,-1.1 -0.9,-0.33 -1.74,-0.75 -2.52,-1.25 -0.78,-0.5 -1.43,-1.14 -1.95,-1.92 -0.52,-0.78 -0.78,-1.83 -0.78,-3.14 0,-0.93 0.17,-1.79 0.5,-2.55 0.34,-0.77 0.82,-1.43 1.46,-1.99 0.64,-0.56 1.4,-0.99 2.29,-1.3 0.89,-0.31 1.89,-0.47 3,-0.47 1.07,0 1.99,0.13 2.76,0.39 0.78,0.26 1.5,0.66 2.17,1.19 -0.2,0.38 -0.37,0.78 -0.5,1.2 -0.13,0.42 -0.27,0.95 -0.4,1.6 h -0.4 c -0.11,-0.31 -0.26,-0.65 -0.45,-1.02 -0.19,-0.37 -0.44,-0.71 -0.77,-1.02 -0.32,-0.31 -0.71,-0.57 -1.15,-0.78 -0.44,-0.21 -0.98,-0.32 -1.6,-0.32 -0.62,0 -1.19,0.1 -1.72,0.3 -0.52,0.2 -0.98,0.48 -1.37,0.85 -0.39,0.37 -0.69,0.8 -0.9,1.31 -0.21,0.51 -0.32,1.07 -0.32,1.66 0,1.04 0.26,1.86 0.78,2.46 0.52,0.6 1.17,1.1 1.95,1.51 0.78,0.41 1.62,0.78 2.52,1.1 0.9,0.32 1.74,0.72 2.52,1.18 0.78,0.47 1.43,1.07 1.95,1.8 0.52,0.73 0.78,1.71 0.78,2.93 0,1.02 -0.18,1.99 -0.55,2.9 -0.37,0.91 -0.9,1.7 -1.6,2.38 -0.7,0.68 -1.56,1.2 -2.57,1.56 -1.01,0.37 -2.17,0.55 -3.46,0.55 -1.38,0 -2.5,-0.18 -3.36,-0.53 -0.86,-0.35 -1.58,-0.76 -2.15,-1.22 0.2,-0.51 0.34,-0.97 0.42,-1.38 0.08,-0.41 0.15,-0.94 0.22,-1.58 h 0.4 c 0.2,0.41 0.44,0.81 0.74,1.22 z"
         id="path56"
         inkscape:connector-curvature="0"
         style="display:inline;fill:#ba8748" /><path
         class="st2"
         d="m 633.47,334.96 c -0.31,-0.04 -0.61,-0.06 -0.88,-0.06 -0.28,0 -0.57,0 -0.88,0 -0.31,0 -0.61,0 -0.88,0 -0.28,0 -0.57,0.02 -0.88,0.06 -0.16,-0.51 -0.37,-1.13 -0.63,-1.85 -0.27,-0.72 -0.56,-1.47 -0.88,-2.26 -0.32,-0.79 -0.65,-1.58 -0.98,-2.39 -0.33,-0.81 -0.64,-1.58 -0.93,-2.31 -0.71,-0.02 -1.43,-0.04 -2.16,-0.05 -0.73,-0.01 -1.47,-0.02 -2.2,-0.02 -0.69,0 -1.37,0.01 -2.03,0.02 -0.67,0.01 -1.34,0.03 -2.03,0.05 -0.71,1.73 -1.36,3.38 -1.93,4.94 -0.58,1.56 -1.01,2.85 -1.3,3.87 -0.38,-0.04 -0.79,-0.06 -1.23,-0.06 -0.44,0 -0.86,0.02 -1.23,0.06 1.8,-3.88 3.55,-7.75 5.26,-11.59 1.71,-3.84 3.43,-7.75 5.16,-11.72 h 0.63 c 0.53,1.29 1.11,2.68 1.73,4.18 0.62,1.5 1.25,3.01 1.9,4.55 0.64,1.53 1.29,3.05 1.93,4.56 0.64,1.51 1.25,2.91 1.82,4.21 0.57,1.3 1.08,2.46 1.53,3.48 0.43,1.02 0.81,1.8 1.09,2.33 z m -14.75,-10.37 c 0.58,0 1.18,0.01 1.8,0.03 0.62,0.02 1.22,0.03 1.8,0.03 0.62,0 1.24,0 1.87,-0.02 0.62,-0.01 1.24,-0.03 1.87,-0.05 l -3.7,-8.46 z"
         id="path58"
         inkscape:connector-curvature="0"
         style="display:inline;fill:#ba8748" /><path
         class="st6"
         d="m 637.87,316.4 c -0.05,-1.41 -0.11,-2.85 -0.17,-4.31 0.64,0.05 1.27,0.09 1.9,0.13 0.62,0.04 1.25,0.06 1.9,0.06 0.64,0 1.27,-0.03 1.9,-0.09 0.63,-0.06 1.25,-0.09 1.9,-0.09 0.93,0 1.82,0.09 2.66,0.27 0.84,0.18 1.58,0.47 2.21,0.88 0.63,0.41 1.13,0.95 1.5,1.61 0.37,0.67 0.55,1.5 0.55,2.5 0,1.07 -0.24,1.98 -0.71,2.75 -0.48,0.77 -1.06,1.4 -1.75,1.9 -0.69,0.5 -1.42,0.89 -2.21,1.17 -0.79,0.28 -1.5,0.46 -2.14,0.55 0.27,0.33 0.63,0.8 1.1,1.4 0.47,0.6 0.99,1.26 1.57,1.98 0.58,0.72 1.18,1.48 1.8,2.26 0.62,0.79 1.22,1.54 1.8,2.26 0.58,0.72 1.12,1.38 1.63,1.98 0.51,0.6 0.92,1.05 1.23,1.36 -0.33,-0.04 -0.67,-0.06 -1,-0.06 -0.33,0 -0.67,0 -1,0 -0.31,0 -0.63,0 -0.97,0 -0.34,0 -0.66,0.02 -0.97,0.06 -0.33,-0.47 -0.84,-1.16 -1.52,-2.1 -0.68,-0.93 -1.43,-1.93 -2.25,-3 -0.82,-1.07 -1.66,-2.13 -2.51,-3.18 -0.85,-1.05 -1.63,-1.95 -2.34,-2.68 h -1.26 v 2.43 c 0,1.47 0.03,2.91 0.08,4.33 0.05,1.42 0.11,2.82 0.17,4.2 -0.51,-0.04 -1.05,-0.06 -1.63,-0.06 -0.58,0 -1.12,0.02 -1.63,0.06 0.06,-1.38 0.12,-2.77 0.17,-4.2 0.05,-1.42 0.08,-2.86 0.08,-4.33 v -5.73 c -0.01,-1.46 -0.03,-2.9 -0.09,-4.31 z m 3.83,6.37 c 0.37,0.02 0.77,0.03 1.21,0.03 0.69,0 1.4,-0.08 2.14,-0.23 0.74,-0.16 1.42,-0.43 2.04,-0.82 0.62,-0.39 1.13,-0.91 1.54,-1.57 0.41,-0.66 0.62,-1.48 0.62,-2.48 0,-0.87 -0.16,-1.58 -0.48,-2.15 -0.32,-0.57 -0.74,-1.02 -1.25,-1.35 -0.51,-0.33 -1.06,-0.56 -1.66,-0.68 -0.6,-0.12 -1.19,-0.18 -1.76,-0.18 -0.78,0 -1.42,0.02 -1.93,0.05 -0.51,0.03 -0.94,0.07 -1.3,0.12 -0.05,1.22 -0.09,2.43 -0.13,3.63 -0.04,1.2 -0.07,2.4 -0.07,3.6 v 1.9 c 0.33,0.06 0.67,0.1 1.03,0.13 z"
         id="path60"
         inkscape:connector-curvature="0"
         style="fill:#ba8748" /><path
         class="st6"
         d="m 659.68,316.4 c -0.04,-1.41 -0.08,-2.85 -0.13,-4.31 0.29,0.05 0.56,0.09 0.83,0.13 0.27,0.04 0.53,0.06 0.8,0.06 0.27,0 0.53,-0.02 0.8,-0.06 0.27,-0.04 0.54,-0.08 0.83,-0.13 -0.08,1.47 -0.15,2.91 -0.21,4.32 -0.07,1.41 -0.1,2.85 -0.1,4.32 0,2.8 0.01,5.23 0.04,7.29 0.03,2.06 0.06,3.9 0.08,5.52 1.58,0 3.09,-0.02 4.53,-0.05 1.44,-0.04 3,-0.17 4.66,-0.41 -0.11,0.4 -0.17,0.73 -0.17,1 0,0.24 0.05,0.54 0.17,0.9 -1.02,-0.04 -2.04,-0.06 -3.06,-0.06 -1.02,0 -2.04,0 -3.06,0 -1.07,0 -2.09,0 -3.07,0 -0.98,0 -2,0.02 -3.05,0.06 0.05,-1.38 0.09,-2.77 0.13,-4.2 0.04,-1.42 0.06,-2.86 0.06,-4.33 v -5.73 c -0.03,-1.47 -0.05,-2.91 -0.08,-4.32 z"
         id="path62"
         inkscape:connector-curvature="0"
         style="fill:#ba8748" /></g></g><g
     id="Layer_4"
     class="st0"
     style="display:none"
     transform="translate(-100.29,-208.92)"><g
       class="st3"
       id="g75"
       style="display:inline"><path
         class="st6"
         d="m 597.26,331.9 c 0.3,0.41 0.67,0.78 1.1,1.12 0.43,0.33 0.94,0.6 1.52,0.82 0.58,0.21 1.22,0.32 1.93,0.32 0.73,0 1.39,-0.13 1.98,-0.38 0.59,-0.26 1.09,-0.6 1.5,-1.03 0.41,-0.43 0.73,-0.95 0.95,-1.54 0.22,-0.59 0.33,-1.22 0.33,-1.89 0,-1.02 -0.26,-1.83 -0.78,-2.44 -0.52,-0.6 -1.17,-1.1 -1.95,-1.5 -0.78,-0.4 -1.62,-0.77 -2.52,-1.1 -0.9,-0.33 -1.74,-0.75 -2.52,-1.25 -0.78,-0.5 -1.43,-1.14 -1.95,-1.92 -0.52,-0.78 -0.78,-1.83 -0.78,-3.14 0,-0.93 0.17,-1.79 0.5,-2.55 0.34,-0.77 0.82,-1.43 1.46,-1.99 0.64,-0.56 1.4,-0.99 2.29,-1.3 0.89,-0.31 1.89,-0.47 3,-0.47 1.07,0 1.99,0.13 2.76,0.39 0.78,0.26 1.5,0.66 2.17,1.19 -0.2,0.38 -0.37,0.78 -0.5,1.2 -0.13,0.42 -0.27,0.95 -0.4,1.6 h -0.4 c -0.11,-0.31 -0.26,-0.65 -0.45,-1.02 -0.19,-0.37 -0.44,-0.71 -0.77,-1.02 -0.32,-0.31 -0.71,-0.57 -1.15,-0.78 -0.44,-0.21 -0.98,-0.32 -1.6,-0.32 -0.62,0 -1.19,0.1 -1.72,0.3 -0.52,0.2 -0.98,0.48 -1.37,0.85 -0.39,0.37 -0.69,0.8 -0.9,1.31 -0.21,0.51 -0.32,1.07 -0.32,1.66 0,1.04 0.26,1.86 0.78,2.46 0.52,0.6 1.17,1.1 1.95,1.51 0.78,0.41 1.62,0.78 2.52,1.1 0.9,0.32 1.74,0.72 2.52,1.18 0.78,0.47 1.43,1.07 1.95,1.8 0.52,0.73 0.78,1.71 0.78,2.93 0,1.02 -0.18,1.99 -0.55,2.9 -0.37,0.91 -0.9,1.7 -1.6,2.38 -0.7,0.68 -1.56,1.2 -2.57,1.56 -1.01,0.37 -2.17,0.55 -3.46,0.55 -1.38,0 -2.5,-0.18 -3.36,-0.53 -0.86,-0.35 -1.58,-0.76 -2.15,-1.22 0.2,-0.51 0.34,-0.97 0.42,-1.38 0.08,-0.41 0.15,-0.94 0.22,-1.58 h 0.4 c 0.2,0.41 0.44,0.81 0.74,1.22 z"
         id="path67"
         inkscape:connector-curvature="0"
         style="fill:#ba8748" /><path
         class="st6"
         d="m 638.47,334.96 c -0.31,-0.04 -0.61,-0.06 -0.88,-0.06 -0.28,0 -0.57,0 -0.88,0 -0.31,0 -0.61,0 -0.88,0 -0.28,0 -0.57,0.02 -0.88,0.06 -0.16,-0.51 -0.37,-1.13 -0.63,-1.85 -0.27,-0.72 -0.56,-1.47 -0.88,-2.26 -0.32,-0.79 -0.65,-1.58 -0.98,-2.39 -0.33,-0.81 -0.64,-1.58 -0.93,-2.31 -0.71,-0.02 -1.43,-0.04 -2.16,-0.05 -0.73,-0.01 -1.47,-0.02 -2.2,-0.02 -0.69,0 -1.37,0.01 -2.03,0.02 -0.67,0.01 -1.34,0.03 -2.03,0.05 -0.71,1.73 -1.36,3.38 -1.93,4.94 -0.58,1.56 -1.01,2.85 -1.3,3.87 -0.38,-0.04 -0.79,-0.06 -1.23,-0.06 -0.44,0 -0.86,0.02 -1.23,0.06 1.8,-3.88 3.55,-7.75 5.26,-11.59 1.71,-3.84 3.43,-7.75 5.16,-11.72 h 0.63 c 0.53,1.29 1.11,2.68 1.73,4.18 0.62,1.5 1.25,3.01 1.9,4.55 0.64,1.53 1.29,3.05 1.93,4.56 0.64,1.51 1.25,2.91 1.82,4.21 0.57,1.3 1.08,2.46 1.53,3.48 0.43,1.02 0.81,1.8 1.09,2.33 z m -14.75,-10.37 c 0.58,0 1.18,0.01 1.8,0.03 0.62,0.02 1.22,0.03 1.8,0.03 0.62,0 1.24,0 1.87,-0.02 0.62,-0.01 1.24,-0.03 1.87,-0.05 l -3.7,-8.46 z"
         id="path69"
         inkscape:connector-curvature="0"
         style="fill:#ba8748" /><path
         class="st7"
         d="m 637.87,316.4 c -0.05,-1.41 -0.11,-2.85 -0.17,-4.31 0.64,0.05 1.27,0.09 1.9,0.13 0.62,0.04 1.25,0.06 1.9,0.06 0.64,0 1.27,-0.03 1.9,-0.09 0.63,-0.06 1.25,-0.09 1.9,-0.09 0.93,0 1.82,0.09 2.66,0.27 0.84,0.18 1.58,0.47 2.21,0.88 0.63,0.41 1.13,0.95 1.5,1.61 0.37,0.67 0.55,1.5 0.55,2.5 0,1.07 -0.24,1.98 -0.71,2.75 -0.48,0.77 -1.06,1.4 -1.75,1.9 -0.69,0.5 -1.42,0.89 -2.21,1.17 -0.79,0.28 -1.5,0.46 -2.14,0.55 0.27,0.33 0.63,0.8 1.1,1.4 0.47,0.6 0.99,1.26 1.57,1.98 0.58,0.72 1.18,1.48 1.8,2.26 0.62,0.79 1.22,1.54 1.8,2.26 0.58,0.72 1.12,1.38 1.63,1.98 0.51,0.6 0.92,1.05 1.23,1.36 -0.33,-0.04 -0.67,-0.06 -1,-0.06 -0.33,0 -0.67,0 -1,0 -0.31,0 -0.63,0 -0.97,0 -0.34,0 -0.66,0.02 -0.97,0.06 -0.33,-0.47 -0.84,-1.16 -1.52,-2.1 -0.68,-0.93 -1.43,-1.93 -2.25,-3 -0.82,-1.07 -1.66,-2.13 -2.51,-3.18 -0.85,-1.05 -1.63,-1.95 -2.34,-2.68 h -1.26 v 2.43 c 0,1.47 0.03,2.91 0.08,4.33 0.05,1.42 0.11,2.82 0.17,4.2 -0.51,-0.04 -1.05,-0.06 -1.63,-0.06 -0.58,0 -1.12,0.02 -1.63,0.06 0.06,-1.38 0.12,-2.77 0.17,-4.2 0.05,-1.42 0.08,-2.86 0.08,-4.33 v -5.73 c -0.01,-1.46 -0.03,-2.9 -0.09,-4.31 z m 3.83,6.37 c 0.37,0.02 0.77,0.03 1.21,0.03 0.69,0 1.4,-0.08 2.14,-0.23 0.74,-0.16 1.42,-0.43 2.04,-0.82 0.62,-0.39 1.13,-0.91 1.54,-1.57 0.41,-0.66 0.62,-1.48 0.62,-2.48 0,-0.87 -0.16,-1.58 -0.48,-2.15 -0.32,-0.57 -0.74,-1.02 -1.25,-1.35 -0.51,-0.33 -1.06,-0.56 -1.66,-0.68 -0.6,-0.12 -1.19,-0.18 -1.76,-0.18 -0.78,0 -1.42,0.02 -1.93,0.05 -0.51,0.03 -0.94,0.07 -1.3,0.12 -0.05,1.22 -0.09,2.43 -0.13,3.63 -0.04,1.2 -0.07,2.4 -0.07,3.6 v 1.9 c 0.33,0.06 0.67,0.1 1.03,0.13 z"
         id="path71"
         inkscape:connector-curvature="0"
         style="display:none;fill:#ba8748" /><path
         class="st7"
         d="m 659.68,316.4 c -0.04,-1.41 -0.08,-2.85 -0.13,-4.31 0.29,0.05 0.56,0.09 0.83,0.13 0.27,0.04 0.53,0.06 0.8,0.06 0.27,0 0.53,-0.02 0.8,-0.06 0.27,-0.04 0.54,-0.08 0.83,-0.13 -0.08,1.47 -0.15,2.91 -0.21,4.32 -0.07,1.41 -0.1,2.85 -0.1,4.32 0,2.8 0.01,5.23 0.04,7.29 0.03,2.06 0.06,3.9 0.08,5.52 1.58,0 3.09,-0.02 4.53,-0.05 1.44,-0.04 3,-0.17 4.66,-0.41 -0.11,0.4 -0.17,0.73 -0.17,1 0,0.24 0.05,0.54 0.17,0.9 -1.02,-0.04 -2.04,-0.06 -3.06,-0.06 -1.02,0 -2.04,0 -3.06,0 -1.07,0 -2.09,0 -3.07,0 -0.98,0 -2,0.02 -3.05,0.06 0.05,-1.38 0.09,-2.77 0.13,-4.2 0.04,-1.42 0.06,-2.86 0.06,-4.33 v -5.73 c -0.03,-1.47 -0.05,-2.91 -0.08,-4.32 z"
         id="path73"
         inkscape:connector-curvature="0"
         style="display:none;fill:#ba8748" /></g><text
       transform="translate(608.5088,335.3291)"
       class="st2 st8 st9"
       id="text77"
       style="font-size:36px;font-family:MyriadPro-Regular;display:inline;fill:#ba8748">.</text>
<text
       transform="translate(638.5088,335.3291)"
       class="st2 st8 st9"
       id="text79"
       style="font-size:36px;font-family:MyriadPro-Regular;display:inline;fill:#ba8748">.</text>
</g><g
     id="Condensed"
     transform="translate(-100.29,-208.92)"><path
       class="st6"
       d="m 193.59,287.11 27.71,15.3 c 3.33,2.05 0.69,6.65 0.69,6.65 0,0 -5.44,6.08 -9.44,10.2 -4,4.13 -7.95,-1.44 -7.95,-1.44 l -16.83,-20.58 c -2.96,-3.48 -4.47,-3.47 -4.47,-3.47 0,0 -1.91,-0.04 -3.41,2.15 -2.74,3.98 -23.98,36.27 -23.98,36.27 0,0 -2.22,4.91 -7.41,1.34 -5.19,-3.57 -11.16,-9.09 -11.16,-9.09 0,0 -4.18,-3.96 2.85,-10.21 7.03,-6.26 33.13,-26.59 33.13,-26.59 -0.06,0.09 1.4,-1.58 0.88,-2.55 l 9.09,8.69 c -1.12,-1.1 -45.41,-43.31 -45.41,-43.31 0,0 -5.6,-4.48 -0.7,-9.36 4.9,-4.88 10.98,-9.44 10.98,-9.44 0,0 3.84,-4.37 8.58,2.33 4.75,6.7 22.53,39.53 22.53,39.53 0,0 1.26,2.2 3.07,2.2 0,0 1.27,0.76 3.59,-2.9 2.32,-3.67 15.63,-24.03 15.63,-24.03 0,0 3.05,-4.76 6.13,-0.52 3.09,4.24 9.81,12.02 9.81,12.02 0,0 3.17,2.67 -1.54,6.25 -4.71,3.58 -22.12,15.16 -22.12,15.16 0,0 -3.1,2.88 -0.25,5.4 z"
       id="path82"
       inkscape:connector-curvature="0"
       style="fill:#ba8748" /><g
       id="g86"><path
         class="st4"
         d="m 241.33,282.57 c 0,36.8 -30.1,66.73 -67.1,66.73 -37,0 -67.1,-29.94 -67.1,-66.73 0,-36.8 30.1,-66.73 67.1,-66.73 37,0 67.1,29.93 67.1,66.73 z m -67.1,-72.65 c -40.22,0 -72.94,32.59 -72.94,72.65 0,40.06 32.72,72.65 72.94,72.65 40.22,0 72.94,-32.59 72.94,-72.65 0.01,-40.06 -32.72,-72.65 -72.94,-72.65 z"
         id="path84"
         inkscape:connector-curvature="0"
         style="fill:#ba8748;stroke:#ba8748;stroke-width:2" /></g><g
       id="g100"><path
         class="st5"
         d="m 271.62,280.7 c 0.13,-3.63 0.2,-7.31 0.2,-11.05 v -14.62 c 0,-3.74 -0.07,-7.41 -0.2,-11 -0.13,-3.6 -0.27,-7.27 -0.43,-11 0.74,0.13 1.45,0.25 2.14,0.35 0.68,0.1 1.37,0.15 2.05,0.15 0.68,0 1.37,-0.05 2.05,-0.15 0.68,-0.1 1.39,-0.22 2.14,-0.35 -0.19,3.74 -0.36,7.41 -0.52,11.01 -0.16,3.6 -0.23,7.27 -0.23,11.01 v 4.68 c 0,0.45 0.17,0.68 0.51,0.68 0.23,0 0.62,-0.25 1.19,-0.76 1.98,-1.7 4.06,-3.63 6.25,-5.78 2.18,-2.15 4.38,-4.39 6.59,-6.71 2.21,-2.32 4.39,-4.69 6.55,-7.1 2.15,-2.41 4.22,-4.75 6.21,-7.01 0.62,0.13 1.22,0.25 1.78,0.35 0.57,0.1 1.13,0.15 1.7,0.15 0.68,0 1.36,-0.05 2.04,-0.15 0.68,-0.1 1.36,-0.22 2.04,-0.35 -1.98,1.7 -4.22,3.71 -6.71,6.03 -2.49,2.32 -5,4.7 -7.52,7.14 -2.52,2.44 -4.93,4.83 -7.22,7.18 -2.3,2.35 -4.21,4.4 -5.74,6.16 4.59,5.16 9.22,10.41 13.9,15.76 4.67,5.35 9.42,10.72 14.24,16.1 -0.85,-0.08 -1.7,-0.13 -2.55,-0.13 -0.85,0 -1.7,0 -2.55,0 -0.79,0 -1.57,0 -2.34,0 -0.77,0 -1.54,0.04 -2.34,0.13 -2.04,-2.32 -4.29,-4.98 -6.76,-7.99 -2.46,-3 -4.87,-5.91 -7.22,-8.71 -2.35,-2.8 -4.48,-5.33 -6.38,-7.57 -1.9,-2.24 -3.3,-3.81 -4.21,-4.72 -0.45,-0.45 -0.79,-0.68 -1.02,-0.68 -0.28,0 -0.42,0.17 -0.42,0.51 v 7.39 c 0,3.74 0.08,7.42 0.23,11.05 0.16,3.63 0.33,7.2 0.52,10.71 -1.31,-0.08 -2.71,-0.13 -4.19,-0.13 -1.48,0 -2.88,0.04 -4.19,0.13 0.13,-3.52 0.28,-7.09 0.41,-10.71 z"
         id="path88"
         inkscape:connector-curvature="0"
         style="fill:#00b194" /><path
         class="st5"
         d="m 373.61,291.4 c -0.79,-0.08 -1.54,-0.13 -2.25,-0.13 -0.71,0 -1.46,0 -2.25,0 -0.79,0 -1.54,0 -2.25,0 -0.71,0 -1.46,0.04 -2.25,0.13 -0.4,-1.3 -0.94,-2.87 -1.62,-4.71 -0.68,-1.84 -1.43,-3.76 -2.25,-5.77 -0.82,-2.01 -1.66,-4.04 -2.51,-6.11 -0.85,-2.07 -1.64,-4.03 -2.38,-5.9 -1.81,-0.04 -3.65,-0.07 -5.53,-0.09 -1.87,-0.02 -3.74,-0.03 -5.61,-0.03 -1.76,0 -3.49,0.01 -5.19,0.03 -1.7,0.02 -3.43,0.05 -5.18,0.09 -1.81,4.42 -3.46,8.62 -4.93,12.61 -1.47,3.99 -2.58,7.29 -3.31,9.89 -0.96,-0.08 -2.01,-0.13 -3.14,-0.13 -1.13,0 -2.18,0.04 -3.14,0.13 4.59,-9.92 9.07,-19.78 13.43,-29.58 4.36,-9.8 8.75,-19.78 13.18,-29.92 h 1.61 c 1.36,3.29 2.83,6.84 4.42,10.67 1.59,3.82 3.2,7.69 4.85,11.6 1.64,3.91 3.29,7.79 4.93,11.65 1.64,3.85 3.19,7.44 4.63,10.75 1.45,3.32 2.75,6.28 3.91,8.88 1.14,2.6 2.09,4.58 2.83,5.94 z m -37.66,-26.37 c 1.47,0 3,0.02 4.59,0.06 1.59,0.04 3.12,0.06 4.59,0.06 1.59,0 3.17,-0.01 4.76,-0.03 1.59,-0.02 3.17,-0.05 4.76,-0.09 l -9.44,-21.59 z"
         id="path90"
         inkscape:connector-curvature="0"
         style="fill:#00b194" /><path
         class="st5"
         d="m 402.79,255.36 c 3.99,7.59 8.17,15.39 12.54,23.37 0.57,-1.08 1.39,-2.62 2.46,-4.63 1.08,-2.01 2.32,-4.32 3.74,-6.93 1.42,-2.61 2.93,-5.43 4.55,-8.46 1.62,-3.03 3.26,-6.11 4.93,-9.22 1.67,-3.12 3.33,-6.18 4.97,-9.18 1.64,-3 3.17,-5.81 4.59,-8.42 h 1.11 c 0.62,5.44 1.2,10.7 1.74,15.77 0.54,5.07 1.09,10.06 1.66,14.96 0.57,4.9 1.13,9.75 1.7,14.54 0.57,4.79 1.19,9.53 1.87,14.24 -0.68,-0.08 -1.35,-0.13 -2,-0.13 -0.65,0 -1.32,0 -2,0 -0.68,0 -1.35,0 -2,0 -0.65,0 -1.32,0.04 -2,0.13 -0.62,-7.54 -1.25,-14.85 -1.87,-21.93 -0.63,-7.08 -1.39,-14.31 -2.29,-21.68 h -0.17 c -3.91,7.15 -7.75,14.25 -11.52,21.31 -3.77,7.06 -7.35,14.45 -10.75,22.17 h -0.77 c -3.4,-7.15 -6.96,-14.31 -10.67,-21.48 -3.71,-7.18 -7.44,-14.51 -11.18,-22 h -0.17 c -0.4,3.51 -0.84,7.32 -1.32,11.43 -0.48,4.11 -0.92,8.16 -1.32,12.15 -0.4,4 -0.74,7.76 -1.02,11.3 -0.29,3.54 -0.43,6.45 -0.43,8.71 -0.91,-0.08 -1.9,-0.13 -2.97,-0.13 -1.08,0 -2.07,0.04 -2.97,0.13 0.74,-4.59 1.5,-9.43 2.29,-14.54 0.79,-5.1 1.56,-10.23 2.3,-15.38 0.74,-5.16 1.42,-10.24 2.04,-15.26 0.62,-5.02 1.16,-9.79 1.62,-14.32 h 1.45 c 3.92,8.07 7.87,15.89 11.86,23.48 z"
         id="path92"
         inkscape:connector-curvature="0"
         style="fill:#00b194" /><path
         class="st5"
         d="m 461.19,249.46 c 1.55,-3.77 3.73,-6.96 6.53,-9.56 2.8,-2.61 6.15,-4.59 10.05,-5.95 3.9,-1.36 8.17,-2.04 12.8,-2.04 4.69,0 8.99,0.68 12.89,2.04 3.9,1.36 7.25,3.35 10.05,5.95 2.8,2.61 4.97,5.79 6.53,9.56 1.55,3.77 2.33,8.06 2.33,12.88 0,4.82 -0.78,9.11 -2.33,12.88 -1.55,3.77 -3.73,6.96 -6.53,9.57 -2.8,2.61 -6.15,4.55 -10.05,5.82 -3.9,1.27 -8.2,1.91 -12.89,1.91 -4.63,0 -8.9,-0.64 -12.8,-1.91 -3.9,-1.28 -7.25,-3.22 -10.05,-5.82 -2.8,-2.61 -4.97,-5.8 -6.53,-9.57 -1.55,-3.77 -2.33,-8.06 -2.33,-12.88 0,-4.81 0.77,-9.11 2.33,-12.88 z m 51.02,0.67 c -1.18,-3.43 -2.83,-6.27 -4.95,-8.51 -2.11,-2.24 -4.59,-3.9 -7.44,-4.98 -2.85,-1.08 -5.93,-1.62 -9.26,-1.62 -3.27,0 -6.33,0.54 -9.17,1.62 -2.85,1.08 -5.33,2.74 -7.44,4.98 -2.11,2.24 -3.76,5.08 -4.95,8.51 -1.18,3.43 -1.78,7.5 -1.78,12.21 0,4.71 0.59,8.78 1.78,12.21 1.18,3.43 2.83,6.27 4.95,8.51 2.11,2.24 4.59,3.9 7.44,4.98 2.85,1.08 5.9,1.62 9.17,1.62 3.32,0 6.41,-0.54 9.26,-1.62 2.85,-1.08 5.33,-2.74 7.44,-4.98 2.11,-2.24 3.76,-5.08 4.95,-8.51 1.18,-3.43 1.78,-7.5 1.78,-12.21 -0.01,-4.71 -0.6,-8.78 -1.78,-12.21 z"
         id="path94"
         inkscape:connector-curvature="0"
         style="fill:#00b194" /><path
         class="st5"
         d="m 544.41,237.53 c -1.47,0 -3.02,0.01 -4.63,0.04 -1.62,0.03 -3.23,0.08 -4.85,0.16 -1.62,0.08 -3.17,0.17 -4.68,0.27 -1.5,0.1 -2.85,0.23 -4.04,0.39 0.28,-1.02 0.43,-1.93 0.43,-2.72 0,-0.62 -0.14,-1.5 -0.43,-2.63 3.74,0.13 7.39,0.25 10.96,0.35 3.57,0.1 7.25,0.15 11.04,0.15 3.79,0 7.47,-0.05 11.04,-0.15 3.57,-0.1 7.22,-0.22 10.97,-0.35 -0.29,1.13 -0.43,2.04 -0.43,2.72 0,0.74 0.14,1.62 0.43,2.63 -1.19,-0.15 -2.54,-0.28 -4.04,-0.39 -1.5,-0.1 -3.06,-0.19 -4.67,-0.27 -1.62,-0.08 -3.23,-0.13 -4.85,-0.16 -1.62,-0.03 -3.16,-0.04 -4.63,-0.04 -0.17,5.83 -0.25,11.68 -0.25,17.56 v 14.59 c 0,3.73 0.07,7.41 0.2,11.03 0.13,3.62 0.28,7.18 0.43,10.69 -1.31,-0.08 -2.71,-0.13 -4.19,-0.13 -1.48,0 -2.88,0.04 -4.19,0.13 0.19,-3.51 0.36,-7.07 0.52,-10.69 0.16,-3.62 0.23,-7.29 0.23,-11.03 v -14.59 c 0.01,-5.88 -0.12,-11.74 -0.37,-17.56 z"
         id="path96"
         inkscape:connector-curvature="0"
         style="fill:#00b194" /><path
         class="st5"
         d="m 576.37,249.46 c 1.55,-3.77 3.73,-6.96 6.53,-9.56 2.8,-2.61 6.15,-4.59 10.05,-5.95 3.9,-1.36 8.17,-2.04 12.8,-2.04 4.69,0 8.99,0.68 12.89,2.04 3.9,1.36 7.25,3.35 10.05,5.95 2.8,2.61 4.97,5.79 6.53,9.56 1.55,3.77 2.33,8.06 2.33,12.88 0,4.82 -0.78,9.11 -2.33,12.88 -1.55,3.77 -3.73,6.96 -6.53,9.57 -2.8,2.61 -6.15,4.55 -10.05,5.82 -3.9,1.27 -8.2,1.91 -12.89,1.91 -4.63,0 -8.9,-0.64 -12.8,-1.91 -3.9,-1.28 -7.25,-3.22 -10.05,-5.82 -2.8,-2.61 -4.97,-5.8 -6.53,-9.57 -1.55,-3.77 -2.33,-8.06 -2.33,-12.88 0,-4.81 0.77,-9.11 2.33,-12.88 z m 51.01,0.67 c -1.18,-3.43 -2.83,-6.27 -4.95,-8.51 -2.11,-2.24 -4.59,-3.9 -7.44,-4.98 -2.85,-1.08 -5.93,-1.62 -9.26,-1.62 -3.27,0 -6.33,0.54 -9.17,1.62 -2.85,1.08 -5.33,2.74 -7.44,4.98 -2.11,2.24 -3.76,5.08 -4.95,8.51 -1.18,3.43 -1.78,7.5 -1.78,12.21 0,4.71 0.59,8.78 1.78,12.21 1.18,3.43 2.83,6.27 4.95,8.51 2.11,2.24 4.59,3.9 7.44,4.98 2.85,1.08 5.9,1.62 9.17,1.62 3.32,0 6.41,-0.54 9.26,-1.62 2.85,-1.08 5.33,-2.74 7.44,-4.98 2.11,-2.24 3.76,-5.08 4.95,-8.51 1.18,-3.43 1.78,-7.5 1.78,-12.21 0,-4.71 -0.59,-8.78 -1.78,-12.21 z"
         id="path98"
         inkscape:connector-curvature="0"
         style="fill:#00b194" /></g><g
       id="g128"><path
         class="st6"
         d="m 287.35,333.61 c -0.43,0.21 -0.96,0.4 -1.57,0.57 -0.61,0.17 -1.3,0.32 -2.05,0.45 -0.76,0.13 -1.55,0.2 -2.37,0.2 -1.76,0 -3.38,-0.25 -4.87,-0.75 -1.49,-0.5 -2.77,-1.26 -3.85,-2.29 -1.08,-1.02 -1.92,-2.28 -2.53,-3.76 -0.61,-1.48 -0.91,-3.17 -0.91,-5.06 0,-1.89 0.3,-3.58 0.91,-5.06 0.61,-1.48 1.46,-2.73 2.56,-3.76 1.1,-1.02 2.42,-1.8 3.95,-2.34 1.54,-0.53 3.23,-0.8 5.07,-0.8 1.47,0 2.81,0.15 4.02,0.46 1.21,0.3 2.29,0.67 3.22,1.09 -0.18,0.31 -0.32,0.74 -0.43,1.27 -0.11,0.53 -0.2,0.98 -0.27,1.33 l -0.2,0.07 c -0.22,-0.27 -0.53,-0.57 -0.93,-0.9 -0.4,-0.33 -0.87,-0.66 -1.4,-0.97 -0.53,-0.31 -1.13,-0.57 -1.8,-0.78 -0.67,-0.21 -1.4,-0.32 -2.2,-0.32 -1.31,0 -2.53,0.21 -3.65,0.63 -1.12,0.42 -2.1,1.07 -2.94,1.95 -0.83,0.88 -1.49,1.99 -1.95,3.34 -0.47,1.35 -0.7,2.94 -0.7,4.79 0,1.85 0.23,3.45 0.7,4.79 0.47,1.35 1.12,2.46 1.95,3.34 0.83,0.88 1.81,1.53 2.94,1.95 1.12,0.42 2.34,0.63 3.65,0.63 0.8,0 1.54,-0.1 2.22,-0.3 0.68,-0.2 1.3,-0.44 1.87,-0.72 0.57,-0.28 1.08,-0.58 1.54,-0.9 0.46,-0.32 0.84,-0.61 1.15,-0.86 l 0.13,0.13 -0.3,1.97 c -0.21,0.2 -0.53,0.4 -0.96,0.61 z"
         id="path102"
         inkscape:connector-curvature="0"
         style="fill:#ba8748" /><path
         class="st6"
         d="m 293.6,317.91 c 0.61,-1.48 1.47,-2.73 2.58,-3.76 1.1,-1.02 2.43,-1.8 3.96,-2.34 1.54,-0.53 3.22,-0.8 5.05,-0.8 1.85,0 3.55,0.27 5.09,0.8 1.54,0.54 2.86,1.31 3.96,2.34 1.1,1.02 1.96,2.28 2.58,3.76 0.61,1.48 0.92,3.17 0.92,5.06 0,1.89 -0.31,3.58 -0.92,5.06 -0.61,1.48 -1.47,2.73 -2.58,3.76 -1.1,1.02 -2.43,1.79 -3.96,2.29 -1.54,0.5 -3.23,0.75 -5.09,0.75 -1.83,0 -3.51,-0.25 -5.05,-0.75 -1.54,-0.5 -2.86,-1.26 -3.96,-2.29 -1.1,-1.02 -1.96,-2.28 -2.58,-3.76 -0.61,-1.48 -0.92,-3.17 -0.92,-5.06 0,-1.89 0.3,-3.58 0.92,-5.06 z m 20.19,0.28 c -0.47,-1.35 -1.13,-2.46 -1.96,-3.34 -0.84,-0.88 -1.82,-1.53 -2.95,-1.95 -1.13,-0.42 -2.35,-0.63 -3.67,-0.63 -1.3,0 -2.51,0.21 -3.64,0.63 -1.13,0.42 -2.11,1.07 -2.95,1.95 -0.84,0.88 -1.49,1.99 -1.96,3.34 -0.47,1.35 -0.71,2.94 -0.71,4.79 0,1.85 0.23,3.45 0.71,4.79 0.47,1.35 1.12,2.46 1.96,3.34 0.84,0.88 1.82,1.53 2.95,1.95 1.13,0.42 2.34,0.63 3.64,0.63 1.32,0 2.54,-0.21 3.67,-0.63 1.13,-0.42 2.11,-1.07 2.95,-1.95 0.84,-0.88 1.49,-1.99 1.96,-3.34 0.47,-1.35 0.7,-2.94 0.7,-4.79 0,-1.84 -0.23,-3.44 -0.7,-4.79 z"
         id="path104"
         inkscape:connector-curvature="0"
         style="fill:#ba8748" /><path
         class="st6"
         d="m 323.52,315.78 c -0.04,-1.41 -0.08,-2.86 -0.13,-4.32 0.53,0.05 1.07,0.09 1.62,0.13 0.54,0.04 1.08,0.06 1.62,0.06 0.27,0 0.59,-0.01 0.97,-0.04 0.38,-0.03 0.76,-0.04 1.15,-0.06 0.39,-0.01 0.76,-0.03 1.12,-0.06 0.36,-0.03 0.66,-0.04 0.9,-0.04 0.33,0 0.75,0.01 1.24,0.03 0.49,0.02 1.01,0.09 1.55,0.2 0.54,0.11 1.08,0.28 1.62,0.5 0.53,0.22 1.02,0.55 1.45,0.97 0.43,0.42 0.78,0.95 1.05,1.59 0.27,0.64 0.4,1.42 0.4,2.36 0,1.47 -0.32,2.67 -0.96,3.58 -0.64,0.91 -1.42,1.63 -2.35,2.14 -0.93,0.51 -1.91,0.86 -2.96,1.04 -1.04,0.18 -1.96,0.27 -2.77,0.27 -0.52,0 -0.99,-0.01 -1.41,-0.02 -0.43,-0.01 -0.86,-0.05 -1.31,-0.1 v 1.83 c 0,1.47 0.03,2.91 0.1,4.34 0.06,1.42 0.14,2.82 0.21,4.2 -0.51,-0.04 -1.05,-0.06 -1.63,-0.06 -0.58,0 -1.12,0.02 -1.63,0.06 0.05,-1.38 0.09,-2.78 0.13,-4.21 0.04,-1.42 0.06,-2.87 0.06,-4.34 v -5.74 c 0.02,-1.46 0,-2.9 -0.04,-4.31 z m 5.2,7.11 c 0.7,0 1.41,-0.08 2.16,-0.23 0.74,-0.16 1.42,-0.44 2.04,-0.85 0.62,-0.41 1.12,-0.98 1.51,-1.7 0.39,-0.72 0.59,-1.65 0.59,-2.79 0,-0.96 -0.13,-1.74 -0.4,-2.34 -0.27,-0.6 -0.65,-1.07 -1.13,-1.4 -0.48,-0.33 -1.07,-0.56 -1.77,-0.68 -0.7,-0.12 -1.48,-0.18 -2.36,-0.18 h -3.03 v 9.92 c 0.76,0.16 1.56,0.25 2.39,0.25 z"
         id="path106"
         inkscape:connector-curvature="0"
         style="fill:#ba8748" /><path
         class="st6"
         d="m 343.36,315.78 c -0.04,-1.41 -0.08,-2.86 -0.13,-4.32 0.53,0.05 1.07,0.09 1.62,0.13 0.54,0.04 1.08,0.06 1.62,0.06 0.27,0 0.59,-0.01 0.97,-0.04 0.38,-0.03 0.76,-0.04 1.15,-0.06 0.39,-0.01 0.76,-0.03 1.12,-0.06 0.36,-0.03 0.66,-0.04 0.9,-0.04 0.33,0 0.75,0.01 1.24,0.03 0.49,0.02 1.01,0.09 1.55,0.2 0.54,0.11 1.08,0.28 1.62,0.5 0.53,0.22 1.02,0.55 1.45,0.97 0.43,0.42 0.78,0.95 1.05,1.59 0.27,0.64 0.4,1.42 0.4,2.36 0,1.47 -0.32,2.67 -0.96,3.58 -0.64,0.91 -1.42,1.63 -2.35,2.14 -0.93,0.51 -1.91,0.86 -2.96,1.04 -1.04,0.18 -1.96,0.27 -2.77,0.27 -0.52,0 -0.99,-0.01 -1.41,-0.02 -0.43,-0.01 -0.86,-0.05 -1.31,-0.1 v 1.83 c 0,1.47 0.03,2.91 0.1,4.34 0.06,1.42 0.14,2.82 0.21,4.2 -0.51,-0.04 -1.05,-0.06 -1.63,-0.06 -0.58,0 -1.12,0.02 -1.63,0.06 0.05,-1.38 0.09,-2.78 0.13,-4.21 0.04,-1.42 0.06,-2.87 0.06,-4.34 v -5.74 c 0.02,-1.46 0,-2.9 -0.04,-4.31 z m 5.2,7.11 c 0.7,0 1.41,-0.08 2.16,-0.23 0.74,-0.16 1.42,-0.44 2.04,-0.85 0.62,-0.41 1.12,-0.98 1.51,-1.7 0.39,-0.72 0.59,-1.65 0.59,-2.79 0,-0.96 -0.13,-1.74 -0.4,-2.34 -0.27,-0.6 -0.65,-1.07 -1.13,-1.4 -0.48,-0.33 -1.07,-0.56 -1.77,-0.68 -0.7,-0.12 -1.48,-0.18 -2.36,-0.18 h -3.03 v 9.92 c 0.76,0.16 1.56,0.25 2.39,0.25 z"
         id="path108"
         inkscape:connector-curvature="0"
         style="fill:#ba8748" /><path
         class="st6"
         d="m 363.2,315.73 c -0.04,-1.42 -0.08,-2.85 -0.13,-4.27 0.98,0.05 1.95,0.09 2.93,0.13 0.98,0.04 1.96,0.06 2.97,0.06 1,0 1.99,-0.02 2.97,-0.06 0.98,-0.04 1.97,-0.08 2.97,-0.13 -0.07,0.33 -0.1,0.67 -0.1,1 0,0.33 0.03,0.67 0.1,1 -0.71,-0.05 -1.36,-0.09 -1.95,-0.13 -0.59,-0.04 -1.21,-0.09 -1.87,-0.13 -0.66,-0.04 -1.37,-0.08 -2.15,-0.12 -0.78,-0.04 -1.71,-0.05 -2.8,-0.05 -0.02,0.71 -0.05,1.39 -0.08,2.04 -0.03,0.65 -0.05,1.38 -0.05,2.21 0,0.87 0.01,1.71 0.03,2.54 0.02,0.82 0.03,1.45 0.03,1.87 0.98,0 1.86,-0.01 2.64,-0.03 0.78,-0.02 1.49,-0.05 2.13,-0.08 0.64,-0.03 1.24,-0.07 1.79,-0.1 0.55,-0.03 1.06,-0.07 1.55,-0.12 -0.07,0.33 -0.1,0.68 -0.1,1.04 0,0.33 0.03,0.67 0.1,1 -0.58,-0.07 -1.25,-0.12 -2.02,-0.17 -0.77,-0.05 -1.54,-0.07 -2.3,-0.08 -0.77,-0.01 -1.49,-0.02 -2.17,-0.03 -0.68,-0.01 -1.22,-0.02 -1.62,-0.02 0,0.2 -0.01,0.42 -0.03,0.65 -0.02,0.23 -0.03,0.53 -0.03,0.89 v 1.31 2.01 c 0,1.27 0,2.32 0.02,3.15 0.01,0.83 0.03,1.45 0.05,1.88 0.73,0 1.51,0 2.34,0 0.85,0 1.67,-0.02 2.49,-0.05 0.81,-0.04 1.58,-0.08 2.3,-0.14 0.72,-0.06 1.35,-0.15 1.89,-0.27 -0.05,0.16 -0.07,0.33 -0.08,0.52 -0.01,0.19 -0.02,0.36 -0.02,0.52 0,0.36 0.03,0.65 0.1,0.87 -1,-0.04 -2,-0.06 -2.99,-0.06 -0.99,0 -2,0 -3.02,0 -1.02,0 -2.03,0 -3.02,0 -0.99,0 -1.98,0.02 -2.98,0.06 0.05,-1.42 0.09,-2.84 0.13,-4.26 0.04,-1.41 0.06,-2.85 0.06,-4.32 v -5.74 c -0.02,-1.52 -0.04,-2.97 -0.08,-4.39 z"
         id="path110"
         inkscape:connector-curvature="0"
         style="fill:#ba8748" /><path
         class="st6"
         d="m 381.21,315.78 c -0.05,-1.41 -0.11,-2.86 -0.17,-4.32 0.64,0.05 1.28,0.09 1.9,0.13 0.62,0.04 1.26,0.06 1.9,0.06 0.65,0 1.28,-0.03 1.9,-0.09 0.62,-0.06 1.26,-0.09 1.9,-0.09 0.93,0 1.82,0.09 2.67,0.27 0.85,0.18 1.59,0.47 2.22,0.88 0.63,0.41 1.13,0.95 1.5,1.62 0.37,0.67 0.55,1.5 0.55,2.5 0,1.07 -0.24,1.99 -0.72,2.75 -0.48,0.77 -1.06,1.4 -1.75,1.9 -0.69,0.5 -1.43,0.89 -2.22,1.17 -0.79,0.28 -1.51,0.46 -2.15,0.55 0.27,0.33 0.63,0.8 1.1,1.4 0.47,0.6 0.99,1.26 1.57,1.99 0.58,0.72 1.18,1.48 1.8,2.27 0.62,0.79 1.22,1.55 1.8,2.27 0.58,0.72 1.12,1.39 1.63,1.99 0.51,0.6 0.92,1.06 1.24,1.37 -0.33,-0.04 -0.67,-0.06 -1,-0.06 -0.33,0 -0.67,0 -1,0 -0.31,0 -0.63,0 -0.97,0 -0.33,0 -0.66,0.02 -0.97,0.06 -0.33,-0.47 -0.84,-1.17 -1.52,-2.1 -0.68,-0.93 -1.43,-1.94 -2.25,-3 -0.82,-1.07 -1.66,-2.13 -2.52,-3.19 -0.86,-1.06 -1.64,-1.95 -2.36,-2.69 h -1.27 v 2.44 c 0,1.47 0.02,2.92 0.07,4.34 0.05,1.42 0.11,2.83 0.17,4.21 -0.51,-0.04 -1.05,-0.06 -1.63,-0.06 -0.58,0 -1.12,0.02 -1.63,0.06 0.06,-1.38 0.12,-2.78 0.17,-4.21 0.05,-1.42 0.08,-2.87 0.08,-4.34 v -5.74 c 0.04,-1.49 0.02,-2.93 -0.04,-4.34 z m 3.84,6.37 c 0.37,0.02 0.78,0.03 1.22,0.03 0.69,0 1.41,-0.08 2.16,-0.23 0.75,-0.16 1.43,-0.43 2.06,-0.82 0.63,-0.39 1.14,-0.91 1.56,-1.57 0.41,-0.66 0.62,-1.48 0.62,-2.49 0,-0.87 -0.16,-1.58 -0.49,-2.15 -0.32,-0.57 -0.74,-1.02 -1.26,-1.35 -0.51,-0.33 -1.07,-0.56 -1.67,-0.68 -0.6,-0.12 -1.19,-0.18 -1.77,-0.18 -0.78,0 -1.43,0.02 -1.94,0.05 -0.51,0.03 -0.95,0.07 -1.3,0.12 -0.04,1.22 -0.09,2.44 -0.13,3.64 -0.04,1.2 -0.07,2.4 -0.07,3.6 v 1.9 c 0.3,0.06 0.64,0.11 1.01,0.13 z"
         id="path112"
         inkscape:connector-curvature="0"
         style="fill:#ba8748" /><path
         class="st6"
         d="m 425.86,333.61 c -0.43,0.21 -0.96,0.4 -1.57,0.57 -0.61,0.17 -1.3,0.32 -2.05,0.45 -0.76,0.13 -1.55,0.2 -2.37,0.2 -1.76,0 -3.38,-0.25 -4.87,-0.75 -1.49,-0.5 -2.77,-1.26 -3.85,-2.29 -1.08,-1.02 -1.92,-2.28 -2.53,-3.76 -0.61,-1.48 -0.91,-3.17 -0.91,-5.06 0,-1.89 0.3,-3.58 0.91,-5.06 0.61,-1.48 1.46,-2.73 2.56,-3.76 1.1,-1.02 2.41,-1.8 3.95,-2.34 1.54,-0.53 3.23,-0.8 5.07,-0.8 1.47,0 2.81,0.15 4.02,0.46 1.21,0.3 2.29,0.67 3.22,1.09 -0.18,0.31 -0.32,0.74 -0.43,1.27 -0.11,0.53 -0.2,0.98 -0.27,1.33 l -0.2,0.07 c -0.22,-0.27 -0.54,-0.57 -0.94,-0.9 -0.4,-0.33 -0.87,-0.66 -1.4,-0.97 -0.53,-0.31 -1.13,-0.57 -1.8,-0.78 -0.67,-0.21 -1.4,-0.32 -2.2,-0.32 -1.31,0 -2.53,0.21 -3.65,0.63 -1.13,0.42 -2.1,1.07 -2.94,1.95 -0.83,0.88 -1.49,1.99 -1.95,3.34 -0.47,1.35 -0.7,2.94 -0.7,4.79 0,1.85 0.23,3.45 0.7,4.79 0.47,1.35 1.12,2.46 1.95,3.34 0.83,0.88 1.81,1.53 2.94,1.95 1.12,0.42 2.34,0.63 3.65,0.63 0.8,0 1.54,-0.1 2.22,-0.3 0.68,-0.2 1.3,-0.44 1.87,-0.72 0.57,-0.28 1.08,-0.58 1.54,-0.9 0.46,-0.32 0.84,-0.61 1.15,-0.86 l 0.13,0.13 -0.3,1.97 c -0.2,0.2 -0.52,0.4 -0.95,0.61 z"
         id="path114"
         inkscape:connector-curvature="0"
         style="fill:#ba8748" /><path
         class="st6"
         d="m 432.12,317.91 c 0.61,-1.48 1.47,-2.73 2.58,-3.76 1.1,-1.02 2.43,-1.8 3.96,-2.34 1.54,-0.53 3.22,-0.8 5.05,-0.8 1.85,0 3.55,0.27 5.09,0.8 1.54,0.54 2.86,1.31 3.96,2.34 1.1,1.02 1.96,2.28 2.58,3.76 0.61,1.48 0.92,3.17 0.92,5.06 0,1.89 -0.31,3.58 -0.92,5.06 -0.61,1.48 -1.47,2.73 -2.58,3.76 -1.1,1.02 -2.43,1.79 -3.96,2.29 -1.54,0.5 -3.23,0.75 -5.09,0.75 -1.83,0 -3.51,-0.25 -5.05,-0.75 -1.54,-0.5 -2.86,-1.26 -3.96,-2.29 -1.1,-1.02 -1.96,-2.28 -2.58,-3.76 -0.61,-1.48 -0.92,-3.17 -0.92,-5.06 0,-1.89 0.3,-3.58 0.92,-5.06 z m 20.18,0.28 c -0.47,-1.35 -1.13,-2.46 -1.96,-3.34 -0.84,-0.88 -1.82,-1.53 -2.95,-1.95 -1.13,-0.42 -2.36,-0.63 -3.68,-0.63 -1.3,0 -2.51,0.21 -3.64,0.63 -1.13,0.42 -2.11,1.07 -2.95,1.95 -0.84,0.88 -1.49,1.99 -1.96,3.34 -0.47,1.35 -0.71,2.94 -0.71,4.79 0,1.85 0.23,3.45 0.71,4.79 0.47,1.35 1.12,2.46 1.96,3.34 0.84,0.88 1.82,1.53 2.95,1.95 1.13,0.42 2.34,0.63 3.64,0.63 1.32,0 2.54,-0.21 3.68,-0.63 1.13,-0.42 2.11,-1.07 2.95,-1.95 0.84,-0.88 1.49,-1.99 1.96,-3.34 0.47,-1.35 0.7,-2.94 0.7,-4.79 0.01,-1.84 -0.23,-3.44 -0.7,-4.79 z"
         id="path116"
         inkscape:connector-curvature="0"
         style="fill:#ba8748" /><path
         class="st6"
         d="m 469,320.23 c 1.57,2.98 3.21,6.04 4.92,9.18 0.22,-0.42 0.55,-1.03 0.97,-1.82 0.42,-0.79 0.91,-1.7 1.47,-2.72 0.56,-1.02 1.15,-2.13 1.79,-3.32 0.63,-1.19 1.28,-2.4 1.94,-3.62 0.66,-1.22 1.31,-2.43 1.95,-3.61 0.64,-1.18 1.24,-2.28 1.8,-3.31 h 0.44 c 0.24,2.14 0.47,4.2 0.68,6.19 0.21,1.99 0.43,3.95 0.65,5.88 0.22,1.93 0.45,3.83 0.67,5.71 0.22,1.88 0.47,3.75 0.73,5.59 -0.27,-0.04 -0.53,-0.06 -0.79,-0.06 -0.26,0 -0.52,0 -0.78,0 -0.27,0 -0.53,0 -0.79,0 -0.26,0 -0.52,0.02 -0.79,0.06 -0.24,-2.96 -0.49,-5.83 -0.73,-8.62 -0.25,-2.78 -0.55,-5.62 -0.9,-8.52 h -0.07 c -1.54,2.81 -3.04,5.6 -4.52,8.37 -1.48,2.77 -2.89,5.67 -4.22,8.7 h -0.3 c -1.34,-2.81 -2.73,-5.62 -4.19,-8.43 -1.46,-2.82 -2.92,-5.7 -4.39,-8.63 h -0.07 c -0.16,1.38 -0.33,2.88 -0.52,4.49 -0.19,1.61 -0.36,3.21 -0.52,4.78 -0.16,1.57 -0.29,3.05 -0.4,4.44 -0.11,1.39 -0.17,2.53 -0.17,3.42 -0.36,-0.04 -0.75,-0.06 -1.17,-0.06 -0.42,0 -0.81,0.02 -1.17,0.06 0.29,-1.8 0.59,-3.71 0.9,-5.71 0.31,-2 0.61,-4.02 0.9,-6.04 0.29,-2.03 0.55,-4.02 0.8,-5.99 0.24,-1.97 0.46,-3.85 0.63,-5.63 h 0.57 c 1.56,3.17 3.11,6.24 4.68,9.22 z"
         id="path118"
         inkscape:connector-curvature="0"
         style="fill:#ba8748" /><path
         class="st6"
         d="m 493,315.78 c -0.04,-1.41 -0.08,-2.86 -0.13,-4.32 0.53,0.05 1.07,0.09 1.62,0.13 0.54,0.04 1.09,0.06 1.62,0.06 0.27,0 0.59,-0.01 0.97,-0.04 0.38,-0.03 0.76,-0.04 1.15,-0.06 0.39,-0.01 0.76,-0.03 1.12,-0.06 0.36,-0.03 0.66,-0.04 0.9,-0.04 0.33,0 0.74,0.01 1.23,0.03 0.49,0.02 1.01,0.09 1.55,0.2 0.54,0.11 1.08,0.28 1.62,0.5 0.53,0.22 1.02,0.55 1.45,0.97 0.43,0.42 0.79,0.95 1.05,1.59 0.27,0.64 0.4,1.42 0.4,2.36 0,1.47 -0.32,2.67 -0.96,3.58 -0.64,0.91 -1.42,1.63 -2.35,2.14 -0.93,0.51 -1.91,0.86 -2.96,1.04 -1.04,0.18 -1.96,0.27 -2.77,0.27 -0.52,0 -0.98,-0.01 -1.41,-0.02 -0.43,-0.01 -0.86,-0.05 -1.31,-0.1 v 1.83 c 0,1.47 0.03,2.91 0.1,4.34 0.06,1.42 0.14,2.82 0.21,4.2 -0.51,-0.04 -1.05,-0.06 -1.63,-0.06 -0.58,0 -1.12,0.02 -1.63,0.06 0.05,-1.38 0.09,-2.78 0.13,-4.21 0.04,-1.42 0.06,-2.87 0.06,-4.34 v -5.74 c 0.03,-1.46 0.01,-2.9 -0.03,-4.31 z m 5.2,7.11 c 0.7,0 1.41,-0.08 2.15,-0.23 0.74,-0.16 1.42,-0.44 2.04,-0.85 0.62,-0.41 1.12,-0.98 1.52,-1.7 0.39,-0.72 0.59,-1.65 0.59,-2.79 0,-0.96 -0.13,-1.74 -0.4,-2.34 -0.27,-0.6 -0.65,-1.07 -1.13,-1.4 -0.48,-0.33 -1.07,-0.56 -1.77,-0.68 -0.7,-0.12 -1.48,-0.18 -2.36,-0.18 h -3.03 v 9.92 c 0.76,0.16 1.56,0.25 2.39,0.25 z"
         id="path120"
         inkscape:connector-curvature="0"
         style="fill:#ba8748" /><path
         class="st6"
         d="m 529.56,334.39 c -0.31,-0.04 -0.61,-0.06 -0.88,-0.06 -0.27,0 -0.57,0 -0.88,0 -0.31,0 -0.61,0 -0.88,0 -0.28,0 -0.57,0.02 -0.88,0.06 -0.16,-0.51 -0.37,-1.13 -0.63,-1.85 -0.27,-0.72 -0.56,-1.47 -0.88,-2.26 -0.32,-0.79 -0.65,-1.58 -0.98,-2.39 -0.33,-0.81 -0.64,-1.58 -0.93,-2.31 -0.71,-0.02 -1.44,-0.04 -2.17,-0.05 -0.73,-0.01 -1.47,-0.02 -2.2,-0.02 -0.69,0 -1.37,0.01 -2.04,0.02 -0.67,0.01 -1.35,0.03 -2.04,0.05 -0.71,1.73 -1.36,3.38 -1.94,4.94 -0.58,1.56 -1.01,2.85 -1.3,3.87 -0.38,-0.04 -0.79,-0.06 -1.23,-0.06 -0.45,0 -0.86,0.02 -1.24,0.06 1.8,-3.9 3.56,-7.77 5.27,-11.62 1.71,-3.85 3.44,-7.77 5.17,-11.75 h 0.63 c 0.54,1.29 1.11,2.69 1.74,4.19 0.62,1.5 1.26,3.02 1.9,4.56 0.64,1.54 1.29,3.06 1.94,4.58 0.64,1.51 1.25,2.92 1.82,4.22 0.57,1.3 1.08,2.47 1.54,3.49 0.43,1.02 0.81,1.8 1.09,2.33 z m -14.78,-10.37 c 0.58,0 1.18,0.01 1.8,0.03 0.62,0.02 1.22,0.03 1.8,0.03 0.62,0 1.25,0 1.87,-0.02 0.62,-0.01 1.25,-0.03 1.87,-0.05 l -3.7,-8.48 z"
         id="path122"
         inkscape:connector-curvature="0"
         style="fill:#ba8748" /><path
         class="st6"
         d="m 545.3,325.73 c -2.89,-3.11 -5.78,-6.2 -8.67,-9.27 -0.03,0.62 -0.06,1.46 -0.08,2.5 -0.03,1.05 -0.04,2.47 -0.04,4.27 0,0.47 0.01,1.05 0.02,1.74 0.01,0.69 0.02,1.41 0.03,2.17 0.01,0.76 0.03,1.53 0.05,2.3 0.02,0.78 0.04,1.5 0.07,2.17 0.02,0.67 0.04,1.25 0.07,1.75 0.02,0.5 0.04,0.84 0.07,1.02 -0.35,-0.04 -0.74,-0.07 -1.15,-0.07 -0.44,0 -0.85,0.02 -1.22,0.07 0.04,-0.22 0.09,-0.63 0.15,-1.24 0.05,-0.6 0.11,-1.32 0.15,-2.15 0.04,-0.83 0.09,-1.74 0.15,-2.72 0.05,-0.98 0.1,-1.96 0.13,-2.94 0.03,-0.98 0.06,-1.94 0.08,-2.87 0.02,-0.93 0.03,-1.77 0.03,-2.5 0,-2.14 -0.01,-3.97 -0.02,-5.51 -0.01,-1.54 -0.05,-2.68 -0.1,-3.44 h 0.54 c 1.36,1.47 2.81,3.04 4.36,4.73 1.55,1.68 3.08,3.34 4.61,4.98 1.53,1.64 2.97,3.18 4.34,4.64 1.37,1.46 2.57,2.7 3.59,3.72 v -4.54 c 0,-2.34 -0.02,-4.61 -0.05,-6.83 -0.03,-2.21 -0.1,-4.3 -0.2,-6.26 0.44,0.11 0.82,0.17 1.13,0.17 0.27,0 0.62,-0.06 1.06,-0.17 -0.05,0.49 -0.1,1.22 -0.16,2.2 -0.06,0.98 -0.12,2.03 -0.18,3.14 -0.06,1.11 -0.11,2.21 -0.16,3.27 -0.05,1.07 -0.07,1.93 -0.07,2.57 0,0.56 0,1.22 0,2 0,0.76 0.01,1.55 0.02,2.37 0.01,0.82 0.03,1.65 0.04,2.49 0.01,0.83 0.03,1.61 0.04,2.34 0.01,0.72 0.02,1.35 0.02,1.89 0,0.49 0,0.86 0,1.1 h -0.47 c -2.57,-2.95 -5.29,-5.99 -8.18,-9.09 z"
         id="path124"
         inkscape:connector-curvature="0"
         style="fill:#ba8748" /><path
         class="st6"
         d="m 566.49,323.36 c -0.43,-0.72 -0.91,-1.53 -1.44,-2.4 -0.53,-0.87 -1.07,-1.8 -1.65,-2.77 -0.58,-0.97 -1.13,-1.89 -1.65,-2.77 -0.52,-0.88 -1,-1.67 -1.42,-2.37 -0.42,-0.7 -0.74,-1.23 -0.97,-1.59 0.31,0.05 0.62,0.09 0.92,0.13 0.3,0.04 0.61,0.06 0.92,0.06 0.31,0 0.62,-0.02 0.92,-0.06 0.3,-0.04 0.61,-0.08 0.92,-0.13 1,1.94 2.02,3.84 3.05,5.71 1.04,1.87 2.13,3.82 3.3,5.84 0.51,-0.8 1.05,-1.68 1.61,-2.64 0.56,-0.96 1.11,-1.94 1.67,-2.94 0.55,-1 1.09,-2.01 1.6,-3.02 0.51,-1.01 0.99,-2 1.44,-2.95 0.55,0.13 0.99,0.19 1.3,0.19 0.31,0 0.75,-0.06 1.3,-0.19 -1.07,1.63 -2.03,3.09 -2.87,4.41 -0.85,1.31 -1.59,2.5 -2.24,3.57 -0.64,1.07 -1.21,2.03 -1.7,2.89 -0.49,0.86 -0.91,1.63 -1.27,2.32 0,0.82 0.01,1.7 0.02,2.64 0.01,0.94 0.03,1.85 0.05,2.75 0.02,0.9 0.05,1.74 0.08,2.5 0.03,0.76 0.07,1.39 0.12,1.85 -0.51,-0.04 -1.06,-0.06 -1.64,-0.06 -0.58,0 -1.13,0.02 -1.64,0.06 0.13,-1.16 0.21,-2.56 0.23,-4.21 0.02,-1.65 0.03,-3.37 0.03,-5.17 -0.23,-0.38 -0.56,-0.93 -0.99,-1.65 z"
         id="path126"
         inkscape:connector-curvature="0"
         style="fill:#ba8748" /></g><g
       id="g138"><path
         class="st6"
         d="m 589.97,331.4 c 0.3,0.41 0.67,0.78 1.1,1.12 0.43,0.33 0.94,0.6 1.52,0.82 0.58,0.21 1.22,0.32 1.93,0.32 0.73,0 1.39,-0.13 1.98,-0.38 0.59,-0.26 1.09,-0.6 1.5,-1.03 0.41,-0.43 0.73,-0.95 0.95,-1.54 0.22,-0.59 0.33,-1.22 0.33,-1.89 0,-1.02 -0.26,-1.83 -0.78,-2.44 -0.52,-0.6 -1.17,-1.1 -1.95,-1.5 -0.78,-0.4 -1.62,-0.77 -2.52,-1.1 -0.9,-0.33 -1.74,-0.75 -2.52,-1.25 -0.78,-0.5 -1.43,-1.14 -1.95,-1.92 -0.52,-0.78 -0.78,-1.83 -0.78,-3.14 0,-0.93 0.17,-1.79 0.5,-2.55 0.34,-0.77 0.82,-1.43 1.46,-1.99 0.64,-0.56 1.4,-0.99 2.29,-1.3 0.89,-0.31 1.89,-0.47 3,-0.47 1.07,0 1.99,0.13 2.77,0.39 0.78,0.26 1.5,0.66 2.17,1.19 -0.2,0.38 -0.37,0.78 -0.5,1.2 -0.13,0.42 -0.27,0.96 -0.4,1.6 h -0.4 c -0.11,-0.31 -0.26,-0.65 -0.45,-1.02 -0.19,-0.37 -0.44,-0.71 -0.77,-1.02 -0.32,-0.31 -0.71,-0.57 -1.15,-0.78 -0.44,-0.21 -0.98,-0.32 -1.6,-0.32 -0.62,0 -1.2,0.1 -1.72,0.3 -0.52,0.2 -0.98,0.48 -1.37,0.85 -0.39,0.37 -0.69,0.8 -0.9,1.31 -0.21,0.51 -0.32,1.07 -0.32,1.66 0,1.04 0.26,1.86 0.78,2.46 0.52,0.6 1.17,1.1 1.95,1.51 0.78,0.41 1.62,0.78 2.52,1.1 0.9,0.32 1.74,0.72 2.52,1.18 0.78,0.47 1.43,1.07 1.95,1.8 0.52,0.73 0.78,1.71 0.78,2.93 0,1.02 -0.19,1.99 -0.55,2.9 -0.37,0.91 -0.9,1.7 -1.6,2.38 -0.7,0.68 -1.56,1.2 -2.57,1.56 -1.01,0.37 -2.17,0.55 -3.46,0.55 -1.38,0 -2.5,-0.18 -3.36,-0.53 -0.86,-0.35 -1.58,-0.76 -2.15,-1.22 0.2,-0.51 0.34,-0.97 0.42,-1.38 0.08,-0.41 0.15,-0.94 0.22,-1.58 h 0.4 c 0.19,0.41 0.43,0.81 0.73,1.22 z"
         id="path130"
         inkscape:connector-curvature="0"
         style="fill:#ba8748" /><path
         class="st6"
         d="m 631.19,334.46 c -0.31,-0.04 -0.61,-0.06 -0.88,-0.06 -0.27,0 -0.57,0 -0.88,0 -0.31,0 -0.61,0 -0.88,0 -0.27,0 -0.57,0.02 -0.88,0.06 -0.16,-0.51 -0.37,-1.13 -0.63,-1.85 -0.27,-0.72 -0.56,-1.47 -0.88,-2.26 -0.32,-0.79 -0.65,-1.58 -0.98,-2.39 -0.33,-0.81 -0.64,-1.58 -0.93,-2.31 -0.71,-0.02 -1.43,-0.04 -2.17,-0.05 -0.73,-0.01 -1.46,-0.02 -2.2,-0.02 -0.69,0 -1.37,0.01 -2.03,0.02 -0.67,0.01 -1.34,0.03 -2.03,0.05 -0.71,1.73 -1.36,3.38 -1.93,4.94 -0.58,1.56 -1.01,2.85 -1.3,3.87 -0.38,-0.04 -0.79,-0.06 -1.23,-0.06 -0.44,0 -0.86,0.02 -1.23,0.06 1.8,-3.88 3.55,-7.75 5.26,-11.59 1.71,-3.84 3.43,-7.75 5.16,-11.72 h 0.63 c 0.53,1.29 1.11,2.68 1.73,4.18 0.62,1.5 1.25,3.01 1.9,4.55 0.64,1.53 1.29,3.05 1.93,4.56 0.64,1.51 1.25,2.91 1.82,4.21 0.57,1.3 1.08,2.46 1.53,3.48 0.43,1.02 0.81,1.8 1.1,2.33 z m -14.76,-10.37 c 0.58,0 1.18,0.01 1.8,0.03 0.62,0.02 1.22,0.03 1.8,0.03 0.62,0 1.24,0 1.87,-0.02 0.62,-0.01 1.24,-0.03 1.87,-0.05 l -3.7,-8.46 z"
         id="path132"
         inkscape:connector-curvature="0"
         style="fill:#ba8748" /><path
         class="st7"
         d="m 630.58,315.9 c -0.05,-1.41 -0.11,-2.85 -0.17,-4.31 0.64,0.05 1.28,0.09 1.9,0.13 0.62,0.04 1.25,0.06 1.89,0.06 0.64,0 1.28,-0.03 1.9,-0.09 0.62,-0.06 1.25,-0.09 1.9,-0.09 0.93,0 1.82,0.09 2.66,0.27 0.84,0.18 1.58,0.47 2.21,0.88 0.63,0.41 1.13,0.95 1.5,1.61 0.37,0.67 0.55,1.5 0.55,2.5 0,1.07 -0.24,1.98 -0.71,2.75 -0.48,0.77 -1.06,1.4 -1.75,1.9 -0.69,0.5 -1.42,0.89 -2.21,1.17 -0.79,0.28 -1.5,0.46 -2.14,0.55 0.27,0.33 0.63,0.8 1.1,1.4 0.47,0.6 0.99,1.26 1.57,1.98 0.58,0.72 1.18,1.48 1.8,2.26 0.62,0.79 1.22,1.54 1.8,2.26 0.58,0.72 1.12,1.38 1.63,1.98 0.51,0.6 0.92,1.05 1.23,1.36 -0.33,-0.04 -0.67,-0.06 -1,-0.06 -0.33,0 -0.67,0 -1,0 -0.31,0 -0.63,0 -0.97,0 -0.33,0 -0.66,0.02 -0.97,0.06 -0.33,-0.47 -0.84,-1.17 -1.52,-2.1 -0.68,-0.93 -1.43,-1.93 -2.25,-3 -0.82,-1.07 -1.66,-2.13 -2.51,-3.18 -0.85,-1.05 -1.63,-1.95 -2.34,-2.68 h -1.26 v 2.43 c 0,1.47 0.03,2.91 0.08,4.33 0.05,1.42 0.11,2.82 0.17,4.2 -0.51,-0.04 -1.05,-0.06 -1.63,-0.06 -0.57,0 -1.12,0.02 -1.63,0.06 0.06,-1.38 0.12,-2.77 0.17,-4.2 0.05,-1.42 0.08,-2.86 0.08,-4.33 v -5.73 c 0,-1.46 -0.02,-2.9 -0.08,-4.31 z m 3.83,6.37 c 0.37,0.02 0.77,0.03 1.21,0.03 0.69,0 1.4,-0.08 2.14,-0.23 0.74,-0.16 1.42,-0.43 2.04,-0.82 0.62,-0.39 1.13,-0.91 1.54,-1.57 0.41,-0.66 0.62,-1.48 0.62,-2.48 0,-0.87 -0.16,-1.58 -0.48,-2.15 -0.32,-0.57 -0.74,-1.02 -1.25,-1.35 -0.51,-0.33 -1.06,-0.56 -1.66,-0.68 -0.6,-0.12 -1.19,-0.18 -1.76,-0.18 -0.78,0 -1.42,0.02 -1.93,0.05 -0.51,0.03 -0.94,0.07 -1.3,0.12 -0.04,1.22 -0.09,2.43 -0.13,3.63 -0.04,1.2 -0.07,2.4 -0.07,3.6 v 1.9 c 0.33,0.06 0.67,0.1 1.03,0.13 z"
         id="path134"
         inkscape:connector-curvature="0"
         style="display:none;fill:#ba8748" /><path
         class="st7"
         d="m 652.39,315.9 c -0.04,-1.41 -0.08,-2.85 -0.13,-4.31 0.29,0.05 0.56,0.09 0.83,0.13 0.27,0.04 0.53,0.06 0.8,0.06 0.27,0 0.53,-0.02 0.79,-0.06 0.27,-0.04 0.54,-0.08 0.83,-0.13 -0.08,1.47 -0.15,2.91 -0.21,4.32 -0.07,1.41 -0.1,2.85 -0.1,4.32 0,2.8 0.01,5.23 0.04,7.29 0.03,2.06 0.05,3.9 0.08,5.52 1.58,0 3.09,-0.02 4.53,-0.05 1.44,-0.04 3,-0.17 4.66,-0.41 -0.11,0.4 -0.17,0.73 -0.17,1 0,0.24 0.05,0.54 0.17,0.9 -1.02,-0.04 -2.04,-0.06 -3.06,-0.06 -1.02,0 -2.04,0 -3.06,0 -1.07,0 -2.09,0 -3.07,0 -0.98,0 -2,0.02 -3.05,0.06 0.05,-1.38 0.09,-2.77 0.13,-4.2 0.04,-1.42 0.06,-2.86 0.06,-4.33 v -5.73 c -0.01,-1.47 -0.03,-2.91 -0.07,-4.32 z"
         id="path136"
         inkscape:connector-curvature="0"
         style="display:none;fill:#ba8748" /></g><text
       transform="translate(601.2192,334.8286)"
       class="st6 st8 st9"
       id="text140"
       style="font-size:36px;font-family:MyriadPro-Regular;fill:#ba8748">.</text>
<text
       transform="translate(631.2192,334.8286)"
       class="st6 st8 st9"
       id="text142"
       style="font-size:36px;font-family:MyriadPro-Regular;fill:#ba8748">.</text>
</g></svg>